<?xml version="1.0" encoding="UTF-8"?>
<svg id="_图层_1" data-name="图层 1" xmlns="http://www.w3.org/2000/svg" viewBox="0 0 1133.86 1133.86">
  <defs>
    <style>
      .cls-1 {
        fill: none;
      }

      .cls-1, .cls-2 {
        stroke-width: 0px;
      }

      .cls-2 {
        fill: #fff;
      }
    </style>
  </defs>
  <rect class="cls-1" width="1133.86" height="1133.86"/>
  <g>
    <path class="cls-2" d="M124.63,563.62l.62,3.07-18.04,3.63-.62-3.07,18.04-3.63ZM125.36,558.87l2.4,11.93-2.96.6-2.4-11.93,2.96-.6Z"/>
    <path class="cls-2" d="M122.73,573.63l.86,3.01-13.78,3.92-.86-3.01,13.78-3.92ZM128.2,572.08l.86,3.01-3.01.86-.86-3.01,3.01-.86Z"/>
    <path class="cls-2" d="M112.4,587.14c.12-.9.48-1.7,1.1-2.39.61-.69,1.47-1.24,2.57-1.66l3.27-1.23c1.14-.43,2.18-.6,3.13-.52.95.08,1.78.41,2.47.98.7.57,1.24,1.38,1.64,2.42.38,1.01.48,1.95.3,2.83-.18.88-.63,1.67-1.36,2.37-.73.7-1.69,1.28-2.9,1.74l-2.3.87-2.86-7.56,2.23-.84,1.81,4.78.84-.3c.72-.28,1.22-.68,1.51-1.2.29-.52.32-1.08.09-1.68-.26-.68-.69-1.12-1.29-1.31-.6-.2-1.31-.14-2.13.17l-3.49,1.32c-.77.29-1.28.71-1.54,1.26-.26.55-.26,1.19,0,1.9.18.48.45.84.81,1.07.36.23.79.34,1.31.32l.06,2.9c-1.15.15-2.14-.05-2.95-.6-.81-.55-1.45-1.43-1.9-2.64-.41-1.08-.56-2.08-.44-2.98ZM131.52,587.28l-2.17-1.08,1.52-3.16-3.23-1.36.9-2.26,5.57,2.39-2.59,5.47ZM134.78,583.53l5.88,1.7-.92,2.78-5.73-2.04.77-2.45Z"/>
    <path class="cls-2" d="M129.56,592.7l1.46,2.82-12.73,6.57-1.46-2.82,12.73-6.57ZM128.44,601.37c.65-.33,1.06-.74,1.24-1.23s.12-1.02-.19-1.61c-.29-.57-.68-.92-1.16-1.05-.48-.13-1.03-.03-1.65.29l2-1.36c.96-.09,1.78.03,2.47.36.69.33,1.21.85,1.58,1.56.57,1.1.64,2.15.21,3.14-.43.99-1.32,1.83-2.69,2.54l-8.67,4.47-1.45-2.81,8.31-4.29Z"/>
    <path class="cls-2" d="M121.01,616.96c.06-.99.52-1.89,1.39-2.69l2.45,1.98c-.38.39-.6.8-.65,1.22s.05.83.32,1.23c.35.52.78.82,1.28.89s1.04-.08,1.61-.46l12.56-8.47,1.77,2.63-12.41,8.37c-.92.62-1.81.96-2.68,1.04-.87.08-1.7-.1-2.48-.54-.78-.44-1.49-1.13-2.12-2.06-.75-1.11-1.09-2.16-1.03-3.15ZM125.47,614.13c0-.71.22-1.41.68-2.08.46-.67,1.13-1.31,2.01-1.9l3.86-2.6c.89-.6,1.74-.99,2.55-1.16.81-.17,1.53-.13,2.19.13.65.26,1.21.73,1.66,1.41.41.61.6,1.29.56,2.04-.04.75-.29,1.5-.77,2.25l-2.21,1.14c.39-.26.67-.54.85-.84.18-.3.26-.61.25-.95s-.13-.68-.36-1.02c-.35-.52-.8-.81-1.35-.86-.55-.06-1.13.12-1.75.54l-3.62,2.44c-.61.41-.98.87-1.12,1.39-.14.51-.03,1.03.33,1.56.23.34.5.59.79.73s.62.19.96.13c.35-.06.71-.21,1.08-.46l-1.99,1.57c-.77.22-1.51.22-2.2-.02-.69-.23-1.26-.67-1.7-1.33-.46-.69-.7-1.39-.7-2.1Z"/>
    <path class="cls-2" d="M153.29,620.71l2.16,2.27-13.33,12.7-2.16-2.27,13.33-12.7ZM151.38,616.3l8.39,8.81-2.19,2.08-8.39-8.81,2.19-2.08Z"/>
    <path class="cls-2" d="M156.26,629.53l2.42,2.13-9.47,10.75-2.42-2.13,9.47-10.75ZM159.37,636.27c-.13-.19-.3-.38-.51-.57-.66-.58-1.34-.85-2.04-.8-.69.05-1.34.4-1.93,1.06l1.92-2.61c.89-.37,1.75-.51,2.57-.42.83.09,1.55.41,2.16.95.23.2.41.42.54.67.13.24.2.49.22.75l-2.69,1.55c-.04-.19-.12-.39-.25-.58Z"/>
    <path class="cls-2" d="M161.42,646.25c-.37.52-.52,1.01-.44,1.49.07.48.37.9.89,1.27.51.36,1,.5,1.46.43.46-.08.88-.38,1.25-.9l-1.19,2c-.67.5-1.36.77-2.07.82-.71.05-1.39-.15-2.04-.62-1.05-.75-1.62-1.66-1.7-2.73-.08-1.08.33-2.25,1.24-3.53l5.62-7.89,2.56,1.82-5.58,7.85ZM170.17,640.66l2.55,1.82-8.3,11.67-2.55-1.82,8.3-11.67Z"/>
    <path class="cls-2" d="M175.93,644.49l2.78,1.53-6.9,12.55-2.78-1.53,6.9-12.55ZM179.84,652.3c.35-.64.46-1.21.34-1.71s-.47-.91-1.05-1.23c-.56-.31-1.08-.38-1.55-.22s-.88.55-1.21,1.16l.9-2.24c.74-.61,1.49-.97,2.25-1.08.75-.11,1.48.03,2.18.41,1.09.6,1.73,1.43,1.93,2.48.2,1.06-.08,2.26-.82,3.61l-4.7,8.55-2.77-1.52,4.5-8.2Z"/>
    <path class="cls-2" d="M182.35,669.38c-.51-.86-.62-1.86-.34-3.01l3.13.28c-.1.54-.05.99.14,1.38.19.38.51.66.95.84.58.24,1.1.24,1.56.03.46-.22.82-.64,1.08-1.27l5.72-14.03,2.94,1.2-5.65,13.86c-.42,1.02-.97,1.81-1.65,2.36-.68.55-1.47.86-2.36.94-.89.07-1.86-.1-2.91-.53-1.24-.5-2.11-1.18-2.61-2.04ZM184.47,664.55c-.4-.59-.6-1.29-.6-2.11,0-.81.21-1.71.61-2.7l1.75-4.31c.41-1,.9-1.79,1.47-2.38.57-.59,1.2-.96,1.89-1.11.69-.15,1.41-.07,2.17.24.68.28,1.21.74,1.6,1.38.38.64.59,1.41.62,2.29l-1.2,2.18c.18-.43.26-.82.24-1.17-.02-.35-.13-.65-.32-.93-.2-.27-.49-.49-.87-.64-.58-.24-1.11-.23-1.6.03-.49.26-.87.73-1.15,1.42l-1.65,4.04c-.28.68-.33,1.27-.16,1.78.17.5.55.87,1.14,1.11.38.16.74.21,1.07.17.33-.05.62-.19.87-.43.26-.24.47-.57.64-.98l-.77,2.41c-.52.61-1.13,1.02-1.83,1.21-.71.19-1.42.14-2.16-.16-.77-.31-1.35-.76-1.75-1.35Z"/>
    <path class="cls-2" d="M220.65,654.74l3.22.62-3.78,19.7-2.87-.55,2.81-14.68.02.9-5.8,10.18-2.14-.41-1.68-11.34.43-1.1-2.81,14.68-2.9-.56,3.78-19.7,3.27.63,1.84,13.14,6.61-11.52Z"/>
    <path class="cls-2" d="M227.93,675.28c-.74-.44-1.29-1.05-1.66-1.84-.36-.79-.52-1.72-.46-2.79l.24-4.57c.06-1.07.31-1.97.75-2.7.44-.74,1.06-1.28,1.84-1.64.78-.36,1.71-.5,2.79-.45,1.07.06,1.99.3,2.73.74.75.44,1.3,1.04,1.66,1.82.36.78.51,1.7.46,2.77l-.24,4.62c-.06,1.07-.3,1.97-.74,2.7-.44.74-1.05,1.29-1.84,1.64-.79.36-1.72.51-2.79.45-1.07-.06-1.98-.3-2.72-.74ZM235.81,657.8l-1.86,1.55-2.28-2.66-2.54,2.41-1.71-1.73,4.43-4.13,3.96,4.57ZM228.95,678.77l3.13.16-.17,3.17-3.13-.16.17-3.17ZM232.3,672.56c.36-.36.56-.9.6-1.61l.23-4.41c.04-.69-.11-1.23-.43-1.62-.32-.4-.8-.61-1.43-.64-.62-.03-1.12.13-1.48.49-.36.36-.56.88-.6,1.57l-.23,4.41c-.04.71.1,1.26.42,1.66.32.4.8.61,1.43.65.63.03,1.13-.13,1.49-.5Z"/>
    <path class="cls-2" d="M242.94,675.52c-.82-.36-1.47-.92-1.94-1.69-.47-.77-.73-1.71-.8-2.82l-.24-4.15c-.06-1.11.09-2.08.47-2.91.38-.83.95-1.47,1.73-1.93.77-.46,1.73-.72,2.86-.79.96-.05,1.78.04,2.46.27.69.24,1.25.64,1.7,1.19.45.56.76,1.26.94,2.11l-2.84,1.1c-.16-.61-.42-1.06-.76-1.34-.34-.29-.79-.42-1.33-.39-.69.04-1.22.28-1.58.72s-.53,1.06-.48,1.85l.23,4.01c.04.76.27,1.34.68,1.72.41.39.96.56,1.66.52.54-.03.97-.2,1.28-.52.31-.32.51-.77.6-1.37l2.96.83c-.09.85-.32,1.57-.69,2.15-.37.58-.89,1.03-1.56,1.33s-1.48.49-2.42.54c-1.13.07-2.11-.08-2.93-.44Z"/>
    <path class="cls-2" d="M269.88,651.36l3.18-.81,4.94,19.45-2.84.72-3.68-14.48.41.81-.93,11.68-2.11.54-6.33-9.55-.07-1.18,3.68,14.48-2.86.73-4.94-19.44,3.22-.82,7.24,11.12,1.09-13.23Z"/>
    <path class="cls-2" d="M276.04,649.34l2.93-1.09,1.09,2.94-2.93,1.09-1.09-2.94ZM278.02,654.67l2.93-1.09,5,13.42-2.93,1.09-5-13.42Z"/>
    <path class="cls-2" d="M290.91,644.83l-.91,2.24-3.27-1.26-1.1,3.33-2.32-.72,1.94-5.74,5.66,2.15ZM292.29,663.9c-.91-.04-1.73-.34-2.47-.9-.74-.56-1.36-1.37-1.86-2.43l-1.49-3.16c-.52-1.1-.77-2.12-.77-3.08,0-.95.27-1.8.78-2.54.51-.74,1.28-1.35,2.28-1.83.97-.46,1.91-.63,2.8-.53.89.11,1.71.5,2.47,1.17.76.67,1.41,1.59,1.96,2.75l1.05,2.22-7.31,3.45-1.02-2.16,4.62-2.18-.37-.82c-.34-.69-.78-1.16-1.31-1.41-.54-.24-1.1-.23-1.68.05-.66.31-1.06.77-1.21,1.39-.15.61-.04,1.32.34,2.11l1.59,3.37c.35.74.81,1.22,1.38,1.44.57.22,1.2.16,1.89-.16.47-.22.8-.52,1-.89s.28-.82.22-1.33l2.88-.29c.24,1.14.12,2.13-.37,2.99-.49.85-1.31,1.56-2.48,2.11-1.05.49-2.03.72-2.94.68Z"/>
    <path class="cls-2" d="M296.48,646.34l2.69-1.68,7.57,12.16-2.69,1.68-7.57-12.16ZM305.21,646.76c-.38-.62-.82-.99-1.32-1.13-.5-.14-1.03-.03-1.59.32-.55.34-.86.76-.96,1.25-.09.49.05,1.03.42,1.62l-1.51-1.89c-.17-.95-.11-1.78.16-2.49.27-.71.75-1.28,1.43-1.7,1.05-.66,2.09-.81,3.11-.46,1.02.35,1.93,1.17,2.74,2.48l5.15,8.28-2.68,1.67-4.94-7.94Z"/>
  </g>
  <path class="cls-2" d="M289.53,503.19c.75-5.23,4.78-8.51,9.87-9.64,6.44-1.43,13.14-1.75,19.74-2.34,6.83-.61,13.75-.57,20.51-1.6,3.43-.52,6.6-2.75,11.3-3.41-2.55,2.77-4.62,6.64-7.78,8.06-4.56,2.05-9.87,2.81-14.94,3.24-7.27.61-14.69-.15-21.91.78-5.56.71-10.9,3.12-16.81,4.92Z"/>
  <path class="cls-2" d="M247.56,629.22c-2.14,0-3.88-1.74-3.88-3.88v-136.72c0-2.14,1.74-3.88,3.88-3.88s3.88,1.74,3.88,3.88v136.72c0,2.14-1.74,3.88-3.88,3.88Z"/>
  <path class="cls-2" d="M334.12,547.81h-29.34c-8.45,0-15.32-6.87-15.32-15.32v-12.75c0-8.45,6.87-15.32,15.32-15.32h29.34c8.45,0,15.32,6.87,15.32,15.32v12.75c0,8.45-6.87,15.32-15.32,15.32ZM304.78,512.16c-4.17,0-7.57,3.39-7.57,7.57v12.75c0,4.17,3.39,7.57,7.57,7.57h29.34c4.17,0,7.57-3.39,7.57-7.57v-12.75c0-4.17-3.39-7.57-7.57-7.57h-29.34Z"/>
  <path class="cls-2" d="M345.57,529.99h-50.64c-2.14,0-3.88-1.74-3.88-3.88s1.74-3.88,3.88-3.88h50.64c2.14,0,3.88,1.74,3.88,3.88s-1.74,3.88-3.88,3.88Z"/>
  <path class="cls-2" d="M317.85,627.17c-2.14,0-3.88-1.74-3.88-3.88v-77.58c0-2.14,1.74-3.88,3.88-3.88s3.88,1.74,3.88,3.88v77.58c0,2.14-1.74,3.88-3.88,3.88Z"/>
  <path class="cls-2" d="M235.34,691.94c-37.37,0-73.25-14.82-101.12-41.77-28.05-27.12-44.06-62.76-45.1-100.34-.74-27.02,5.93-53.6,19.29-76.87,1.07-1.86,3.44-2.5,5.29-1.43,1.86,1.07,2.5,3.44,1.43,5.29-12.65,22.03-18.97,47.2-18.26,72.79,2.01,73.09,65.36,134.57,138.48,134.57.21,0,.42,0,.63,0,47.39-.23,90.87-24.29,116.31-64.36.03-.05.1-.16.02-.31-.05-.09-.1-.12-.16-.13-5.79-.09-10.47-4.83-10.47-10.64v-34.29c0-4.2-3.41-7.61-7.61-7.61h-31.71c-4.2,0-7.61,3.41-7.61,7.61v31.95c0,7.85-6.39,14.28-14.24,14.32-3.81.01-7.46-1.46-10.18-4.16-2.73-2.71-4.23-6.32-4.23-10.16v-68.64c0-2.77-2.26-5.03-5.03-5.03h-24.89c-2.78,0-5.03,2.26-5.03,5.03v70.67c0,7.05-5.74,12.79-12.79,12.79h-.92c-2.14,0-3.88-1.74-3.88-3.88s1.74-3.88,3.88-3.88h.92c2.77,0,5.03-2.26,5.03-5.03v-70.67c0-7.05,5.74-12.79,12.79-12.79h24.89c7.05,0,12.79,5.74,12.79,12.79v68.64c0,1.76.69,3.42,1.94,4.66,1.24,1.23,2.88,1.91,4.63,1.91h.04c3.6-.02,6.53-2.97,6.53-6.57v-31.95c0-8.47,6.89-15.37,15.37-15.37h31.71c8.47,0,15.37,6.89,15.37,15.37v34.29c0,1.59,1.29,2.88,2.88,2.88h.22c2.87.17,5.36,1.79,6.67,4.34,1.32,2.57,1.18,5.56-.37,8-26.86,42.31-72.77,67.72-122.82,67.96-.23,0-.46,0-.68,0Z"/>
  <path class="cls-2" d="M368.17,600.78c-.46,0-.94-.08-1.39-.26-2-.77-2.99-3.01-2.22-5.01,6.26-16.25,9.36-33.41,9.22-51-.65-76.14-63.18-137.73-139.31-137.27-31.69.19-62.6,11.36-87.04,31.45-2.58,2.12-2.71,5.09-1.98,7.16.74,2.1,2.74,4.36,6.12,4.39l61.13.83c2.14.03,3.85,1.79,3.82,3.93-.03,2.12-1.76,3.82-3.88,3.82h-.05l-61.11-.83c-6.07-.06-11.31-3.81-13.34-9.57-2.02-5.72-.3-11.89,4.37-15.73,25.81-21.22,58.46-33.01,91.92-33.21.29,0,.59,0,.88,0,80.04,0,145.55,64.84,146.24,144.96.16,18.57-3.12,36.69-9.73,53.85-.59,1.54-2.06,2.48-3.62,2.48Z"/>
  <path class="cls-2" d="M182.13,554.87c-2.14,0-3.88-1.74-3.88-3.88v-124.78c0-2.14,1.74-3.88,3.88-3.88s3.88,1.74,3.88,3.88v124.78c0,2.14-1.74,3.88-3.88,3.88Z"/>
  <path class="cls-2" d="M132.45,551.58c-.62,0-1.24-.15-1.83-.46-1.89-1.01-2.6-3.36-1.59-5.25l52.53-98.08,35.01,46.08c5.02,6.6,12.97,10.55,21.26,10.55h37.37c2.14,0,3.88,1.74,3.88,3.88s-1.74,3.88-3.88,3.88h-37.37c-10.7,0-20.96-5.09-27.44-13.61l-27.71-36.46-46.83,87.43c-.7,1.31-2.04,2.05-3.42,2.05Z"/>
  <path class="cls-2" d="M224.68,471.03c7.23-.47,12.95,2.36,18.11,7.41-1.04-7.16.03-13.48,4.79-19.06,4.92,5.71,5.83,12.2,4.73,19.44,5.22-5.21,11.06-8.12,18.55-7.53-1.17,5.27-4.05,9.11-8.05,12.17-3.99,3.05-8.51,4.67-13.81,4.64,0,1.35,0,2.64,0,3.93,0,.64-.06,1.28.02,1.91.14,1.26-.31,1.75-1.63,1.67-1.65-.1-1.66-.02-1.66-1.67,0-1.53-.05-3.05.02-4.57.04-.97-.27-1.26-1.26-1.37-9.16-1.06-15.59-5.83-19.19-14.35-.21-.5-.33-1.05-.47-1.58-.06-.24-.07-.49-.14-1.02Z"/>
  <path class="cls-2" d="M228.08,468.59c-1.3,0-2.24.1-3.15-.04-.44-.07-.96-.48-1.21-.88-2.95-4.73-1.77-11.27,2.63-14.95,1.86-1.55,3.96-2.61,6.35-3.03.88-.15,1.26-.49,1.49-1.38,1.43-5.59,6.37-9.68,12.09-10,3.1-.17,5.99.57,8.56,2.38,2.67,1.88,4.47,4.38,5.29,7.53.25.94.67,1.24,1.61,1.36,6.86.8,11.84,6.65,11.2,13.33-.16,1.71-1.05,3.35-1.65,5.01-.26.73-.83.95-1.62.85-.83-.1-1.68-.02-2.71-.02.22-.32.32-.53.48-.69,4.92-5,2.78-12.82-4.29-15.15-1.03-.34-2.16-.44-3.25-.52-1.83-.12-2.06-.26-2.36-2.11-.62-3.81-2.69-6.52-6.17-8.14-6.09-2.82-13.52,1.2-14.56,7.84q-.34,2.18-2.47,2.44c-5.01.62-8.68,3.94-9.24,8.36-.31,2.45.44,4.6,1.94,6.51.25.33.52.65,1.03,1.28Z"/>
  <g>
    <path class="cls-2" d="M459.89,500.82c-.95-.2-1.84-.49-2.68-.88-.84-.39-1.58-.85-2.24-1.4l1.82-3.24c.8.66,1.73,1.17,2.78,1.52s2.13.54,3.24.54c1.28,0,2.27-.22,2.98-.65.71-.43,1.06-1.05,1.06-1.84h0c0-.57-.16-1.01-.47-1.33-.31-.32-.73-.56-1.23-.72-.51-.15-1.15-.29-1.95-.42-.03,0-.05-.01-.08-.01s-.05,0-.08-.01l-.31-.04c-1.39-.22-2.55-.49-3.46-.82-.92-.33-1.69-.91-2.33-1.73-.64-.83-.96-2-.96-3.51h0c0-1.36.3-2.51.9-3.46.6-.95,1.47-1.68,2.62-2.18,1.15-.5,2.53-.75,4.15-.75.74,0,1.51.09,2.28.26.78.17,1.54.42,2.28.74.74.32,1.45.72,2.12,1.17l-1.66,3.32c-.8-.55-1.64-.98-2.51-1.29-.87-.31-1.71-.46-2.51-.46-1.2,0-2.13.2-2.79.59s-.99.95-.99,1.67h0c0,.62.17,1.09.52,1.44.34.35.77.6,1.27.77.51.16,1.22.33,2.13.52.04,0,.08.02.11.02s.08.01.11.02c.06,0,.11.02.16.04.05.01.11.03.16.04,1.32.26,2.42.57,3.3.94.88.37,1.62.96,2.21,1.78.59.82.89,1.93.89,3.34v.03c0,1.33-.31,2.46-.93,3.41s-1.52,1.67-2.71,2.16c-1.19.5-2.62.74-4.29.74-.99,0-1.96-.1-2.91-.3Z"/>
    <path class="cls-2" d="M476.93,500.17c-1.15-.63-2.04-1.53-2.67-2.69s-.94-2.5-.94-4.03v-5.9c0-1.53.31-2.87.94-4.03s1.52-2.06,2.67-2.69c1.15-.63,2.48-.95,3.99-.95s2.84.32,3.99.95c1.15.63,2.04,1.53,2.67,2.69s.94,2.5.94,4.03v5.9c0,1.53-.31,2.87-.94,4.03s-1.52,2.06-2.67,2.69c-1.15.63-2.48.95-3.99.95s-2.84-.32-3.99-.95ZM482.78,496.75c.53-.3.95-.73,1.24-1.28.29-.55.44-1.19.44-1.92v-6.1c0-.73-.15-1.36-.44-1.92-.29-.55-.7-.98-1.24-1.28-.53-.3-1.15-.45-1.86-.45s-1.33.15-1.86.45c-.53.3-.95.73-1.24,1.28-.29.55-.44,1.19-.44,1.92v6.1c0,.73.15,1.37.44,1.92.29.55.7.98,1.24,1.28.53.3,1.15.45,1.86.45s1.33-.15,1.86-.45ZM483.67,474.29c.61.39.92.97.92,1.75,0,.82-.28,1.43-.84,1.84-.56.41-1.4.61-2.53.61l-1.25-1.09c.4,0,.7-.05.9-.16.2-.1.3-.26.3-.46s-.09-.34-.27-.44c-.18-.1-.46-.15-.83-.15-.5,0-1,.04-1.5.13l-.17-2.42c.67-.13,1.5-.2,2.51-.2,1.23,0,2.15.19,2.76.58ZM479.31,477.4h3.24v1.27h-3.24v-1.27ZM482.98,482.3v-2.21h1.72c1.57,0,2.35-.71,2.35-2.13v-.33h3.41v.62c0,1.36-.35,2.37-1.05,3.04s-1.76,1.01-3.17,1.01h-3.25Z"/>
    <path class="cls-2" d="M515.92,489.27v4.07c0,1.55-.31,2.91-.94,4.09-.62,1.18-1.51,2.09-2.66,2.73-1.15.64-2.47.97-3.98.97s-2.86-.3-4.02-.91-2.06-1.46-2.69-2.57c-.63-1.11-.95-2.39-.95-3.85v-6.14c0-1.55.31-2.91.94-4.08s1.51-2.08,2.66-2.73c1.15-.64,2.47-.97,3.98-.97,1.24,0,2.39.26,3.44.77,1.05.51,1.93,1.23,2.63,2.17.7.94,1.18,2.02,1.42,3.25h-4.24c-.14-.44-.38-.82-.71-1.14-.33-.32-.72-.56-1.16-.73-.44-.17-.9-.25-1.38-.25-.7,0-1.31.15-1.84.46-.53.31-.94.74-1.23,1.3-.29.56-.44,1.21-.44,1.95v6.14c0,.65.15,1.22.44,1.72.3.5.72.88,1.26,1.15s1.17.4,1.89.4,1.32-.15,1.85-.44.94-.71,1.22-1.27.43-1.21.43-1.96v-.34h-3.15v-3.78h7.22Z"/>
    <path class="cls-2" d="M523.57,500.91h-4.07v-20.82h4.07v20.82Z"/>
    <path class="cls-2" d="M533.53,480.09h2.49l7.96,20.82h-4.22l-4.98-14.22-4.98,14.22h-4.22l7.96-20.82ZM529.39,493.79h10.95v3.78h-10.95v-3.78ZM533,476.4l3.95-3.51,2.61,2.68-4.22,3.24-2.33-2.4Z"/>
    <path class="cls-2" d="M549.17,500.17c-1.15-.63-2.04-1.53-2.67-2.69s-.94-2.5-.94-4.03v-5.9c0-1.53.31-2.87.94-4.03s1.52-2.06,2.67-2.69c1.15-.63,2.48-.95,3.99-.95s2.84.32,3.99.95c1.15.63,2.04,1.53,2.67,2.69s.94,2.5.94,4.03v5.9c0,1.53-.31,2.87-.94,4.03s-1.52,2.06-2.67,2.69c-1.15.63-2.48.95-3.99.95s-2.84-.32-3.99-.95ZM555.02,496.75c.53-.3.95-.73,1.24-1.28.29-.55.44-1.19.44-1.92v-6.1c0-.73-.15-1.36-.44-1.92-.29-.55-.7-.98-1.24-1.28-.53-.3-1.15-.45-1.86-.45s-1.33.15-1.86.45c-.53.3-.95.73-1.24,1.28-.29.55-.44,1.19-.44,1.92v6.1c0,.73.15,1.37.44,1.92.29.55.7.98,1.24,1.28.53.3,1.15.45,1.86.45s1.33-.15,1.86-.45Z"/>
    <path class="cls-2" d="M572.79,480.09h3.92v20.82h-3.92v-20.82ZM574.76,497.13h5c1.29,0,2.29-.31,2.99-.93.71-.62,1.06-1.5,1.06-2.63v-6.13c0-1.14-.35-2.01-1.06-2.63-.71-.62-1.7-.93-2.99-.93h-5v-3.78h4.91c1.74,0,3.22.29,4.45.87s2.16,1.43,2.8,2.55c.64,1.12.96,2.46.96,4.04v5.9c0,1.5-.31,2.81-.92,3.92-.62,1.12-1.54,1.99-2.77,2.61-1.23.62-2.74.93-4.52.93h-4.9v-3.78Z"/>
    <path class="cls-2" d="M594.65,500.21c-1.14-.61-2-1.49-2.59-2.65-.59-1.16-.89-2.56-.89-4.19v-13.29h3.92v13.39c0,1.19.32,2.12.96,2.78.64.66,1.54.99,2.71.99s2.08-.33,2.73-.99c.64-.66.97-1.58.97-2.78v-13.39h3.92v13.29c0,1.63-.3,3.03-.89,4.19-.6,1.16-1.47,2.04-2.61,2.65s-2.51.91-4.12.91-2.97-.3-4.11-.91ZM596.8,504.06h3.92v3.99h-3.92v-3.99Z"/>
    <path class="cls-2" d="M613.13,500.21c-1.13-.61-1.99-1.49-2.58-2.65-.59-1.16-.89-2.56-.89-4.2v-5.71c0-1.64.29-3.04.89-4.2.59-1.16,1.45-2.04,2.58-2.66s2.48-.92,4.07-.92c1.31,0,2.48.28,3.51.84,1.03.56,1.88,1.38,2.55,2.46s1.14,2.37,1.4,3.89h-4.07c-.15-.69-.39-1.27-.71-1.76-.32-.49-.71-.86-1.16-1.12s-.96-.39-1.52-.39c-.74,0-1.36.15-1.88.45-.51.3-.91.74-1.18,1.32-.27.58-.41,1.27-.41,2.08v5.71c0,.81.14,1.5.41,2.08.27.57.67,1.01,1.18,1.31.52.3,1.14.45,1.88.45.57,0,1.09-.13,1.55-.38s.84-.62,1.16-1.11c.31-.49.54-1.08.69-1.78h4.07c-.27,1.52-.74,2.81-1.41,3.89s-1.52,1.89-2.55,2.46c-1.03.56-2.19.84-3.5.84-1.58,0-2.94-.3-4.07-.91Z"/>
    <path class="cls-2" d="M633.96,480.09h4.04l4.42,13.89,4.42-13.89h4.04l-6.93,20.82h-3.06l-6.93-20.82Z"/>
    <path class="cls-2" d="M658.13,480.09h2.49l7.96,20.82h-4.22l-4.98-14.22-4.98,14.22h-4.22l7.96-20.82ZM653.99,493.79h10.95v3.78h-10.95v-3.78ZM654.38,475.57l2.61-2.68,4.09,3.51-2.48,2.4-4.22-3.24Z"/>
    <path class="cls-2" d="M687.02,488.75v3.49h-9.59v-3.49h9.59ZM679.7,480.09h3.92v20.82h-3.92v-20.82ZM681.68,497.13h5c1.29,0,2.29-.31,2.99-.93.71-.62,1.06-1.5,1.06-2.63v-6.13c0-1.14-.35-2.01-1.06-2.63-.71-.62-1.7-.93-2.99-.93h-5v-3.78h4.91c1.74,0,3.22.29,4.45.87s2.16,1.43,2.8,2.55.96,2.46.96,4.04v5.9c0,1.5-.31,2.81-.92,3.92s-1.54,1.99-2.77,2.61c-1.23.62-2.74.93-4.52.93h-4.9v-3.78Z"/>
    <path class="cls-2" d="M704.33,480.09h2.49l7.96,20.82h-4.22l-4.98-14.22-4.98,14.22h-4.22l7.96-20.82ZM700.19,493.79h10.95v3.78h-10.95v-3.78ZM700.58,475.57l2.61-2.68,4.09,3.51-2.48,2.4-4.22-3.24Z"/>
    <path class="cls-2" d="M719.97,500.17c-1.15-.63-2.04-1.53-2.67-2.69s-.94-2.5-.94-4.03v-5.9c0-1.53.31-2.87.94-4.03s1.52-2.06,2.67-2.69c1.15-.63,2.48-.95,3.99-.95s2.84.32,3.99.95,2.04,1.53,2.67,2.69.95,2.5.95,4.03v5.9c0,1.53-.32,2.87-.95,4.03s-1.52,2.06-2.67,2.69-2.48.95-3.99.95-2.84-.32-3.99-.95ZM725.82,496.75c.53-.3.95-.73,1.24-1.28.29-.55.44-1.19.44-1.92v-6.1c0-.73-.15-1.36-.44-1.92s-.7-.98-1.24-1.28c-.53-.3-1.15-.45-1.86-.45s-1.33.15-1.86.45c-.54.3-.95.73-1.24,1.28s-.44,1.19-.44,1.92v6.1c0,.73.15,1.37.44,1.92.29.55.7.98,1.24,1.28.53.3,1.15.45,1.86.45s1.33-.15,1.86-.45Z"/>
    <path class="cls-2" d="M740.72,480.09h15.26v3.78h-15.26v-3.78ZM746.39,481.8h3.92v19.11h-3.92v-19.11Z"/>
    <path class="cls-2" d="M762.94,480.09h2.49l7.96,20.82h-4.22l-4.98-14.22-4.98,14.22h-4.22l7.96-20.82ZM758.8,493.79h10.95v3.78h-10.95v-3.78ZM762.22,504.06h3.92v3.99h-3.92v-3.99Z"/>
    <path class="cls-2" d="M778.58,500.17c-1.15-.63-2.04-1.53-2.67-2.69s-.94-2.5-.94-4.03v-5.9c0-1.53.31-2.87.94-4.03s1.52-2.06,2.67-2.69c1.15-.63,2.48-.95,3.99-.95s2.84.32,3.99.95,2.04,1.53,2.67,2.69.95,2.5.95,4.03v5.9c0,1.53-.32,2.87-.95,4.03s-1.52,2.06-2.67,2.69-2.48.95-3.99.95-2.84-.32-3.99-.95ZM784.43,496.75c.53-.3.95-.73,1.24-1.28.29-.55.44-1.19.44-1.92v-6.1c0-.73-.15-1.36-.44-1.92s-.7-.98-1.24-1.28c-.53-.3-1.15-.45-1.86-.45s-1.33.15-1.86.45c-.54.3-.95.73-1.24,1.28s-.44,1.19-.44,1.92v6.1c0,.73.15,1.37.44,1.92.29.55.7.98,1.24,1.28.53.3,1.15.45,1.86.45s1.33-.15,1.86-.45Z"/>
    <path class="cls-2" d="M799.33,480.09h15.26v3.78h-15.26v-3.78ZM805,481.8h3.92v19.11h-3.92v-19.11Z"/>
    <path class="cls-2" d="M821.38,474.29c.61.39.92.97.92,1.75,0,.82-.28,1.43-.84,1.84-.56.41-1.4.61-2.53.61l-1.25-1.09c.4,0,.7-.05.9-.16.2-.1.3-.26.3-.46s-.09-.34-.27-.44c-.18-.1-.46-.15-.83-.15-.5,0-1,.04-1.5.13l-.17-2.42c.67-.13,1.5-.2,2.51-.2,1.23,0,2.15.19,2.76.58ZM820.66,500.91h-4.07v-20.82h4.07v20.82ZM817.03,477.4h3.24v1.27h-3.24v-1.27Z"/>
    <path class="cls-2" d="M824.96,480.09h4.8l7.75,15.95-.34.37v-16.32h3.75v20.8h-4.82l-7.72-15.71.34-.37v16.08h-3.75v-20.8Z"/>
    <path class="cls-2" d="M845.49,480.09h3.92v20.82h-3.92v-20.82ZM847.31,488.7h12.13v3.78h-12.13v-3.78ZM856.88,480.09h3.92v20.82h-3.92v-20.82Z"/>
    <path class="cls-2" d="M876.45,500.17c-1.15-.63-2.04-1.53-2.67-2.69s-.94-2.5-.94-4.03v-5.9c0-1.53.31-2.87.94-4.03s1.52-2.06,2.67-2.69c1.15-.63,2.48-.95,3.99-.95s2.84.32,3.99.95,2.04,1.53,2.67,2.69.95,2.5.95,4.03v5.9c0,1.53-.32,2.87-.95,4.03s-1.52,2.06-2.67,2.69-2.48.95-3.99.95-2.84-.32-3.99-.95ZM882.3,496.75c.53-.3.95-.73,1.24-1.28.29-.55.44-1.19.44-1.92v-6.1c0-.73-.15-1.36-.44-1.92s-.7-.98-1.24-1.28c-.53-.3-1.15-.45-1.86-.45s-1.33.15-1.86.45c-.54.3-.95.73-1.24,1.28s-.44,1.19-.44,1.92v6.1c0,.73.15,1.37.44,1.92.29.55.7.98,1.24,1.28.53.3,1.15.45,1.86.45s1.33-.15,1.86-.45ZM879.82,495.14l2.09-2.65,8.05,6.1-2.09,2.66-8.05-6.11Z"/>
    <path class="cls-2" d="M895.73,500.21c-1.14-.61-2-1.49-2.59-2.65s-.89-2.56-.89-4.19v-13.29h3.92v13.39c0,1.19.32,2.12.96,2.78.64.66,1.54.99,2.71.99s2.08-.33,2.73-.99.97-1.58.97-2.78v-13.39h3.92v13.29c0,1.63-.3,3.03-.9,4.19s-1.46,2.04-2.61,2.65-2.51.91-4.12.91-2.97-.3-4.11-.91Z"/>
    <path class="cls-2" d="M917.13,480.09h2.49l7.96,20.82h-4.22l-4.98-14.22-4.98,14.22h-4.22l7.96-20.82ZM912.99,493.79h10.95v3.78h-10.95v-3.78ZM921.12,474.29c.61.39.92.97.92,1.75,0,.82-.28,1.43-.84,1.84-.56.41-1.4.61-2.53.61l-1.25-1.09c.4,0,.7-.05.9-.16.2-.1.3-.26.3-.46s-.09-.34-.27-.44-.46-.15-.83-.15c-.5,0-1,.04-1.5.13l-.17-2.42c.67-.13,1.5-.2,2.5-.2,1.23,0,2.15.19,2.76.58ZM916.77,477.4h3.24v1.27h-3.24v-1.27Z"/>
    <path class="cls-2" d="M930.16,480.09h4.8l7.75,15.95-.34.37v-16.32h3.75v20.8h-4.82l-7.72-15.71.34-.37v16.08h-3.75v-20.8Z"/>
    <path class="cls-2" d="M965.49,489.27v4.07c0,1.55-.31,2.91-.94,4.09-.62,1.18-1.51,2.09-2.66,2.73-1.15.64-2.47.97-3.98.97s-2.86-.3-4.02-.91c-1.16-.61-2.06-1.46-2.69-2.57-.63-1.11-.95-2.39-.95-3.85v-6.14c0-1.55.31-2.91.94-4.08s1.51-2.08,2.66-2.73c1.14-.64,2.47-.97,3.98-.97,1.24,0,2.39.26,3.44.77,1.05.51,1.92,1.23,2.63,2.17.7.94,1.18,2.02,1.42,3.25h-4.24c-.14-.44-.38-.82-.71-1.14s-.72-.56-1.16-.73c-.44-.17-.9-.25-1.38-.25-.7,0-1.31.15-1.84.46-.53.31-.94.74-1.23,1.3s-.44,1.21-.44,1.95v6.14c0,.65.15,1.22.44,1.72.3.5.72.88,1.26,1.15s1.17.4,1.89.4,1.32-.15,1.85-.44c.53-.29.94-.71,1.22-1.27s.43-1.21.43-1.96v-.34h-3.15v-3.78h7.21Z"/>
    <path class="cls-2" d="M974.65,480.09h15.26v3.78h-15.26v-3.78ZM980.32,481.8h3.92v19.11h-3.92v-19.11Z"/>
    <path class="cls-2" d="M992.21,480.08h3.92v20.83h-3.92v-20.83ZM993.77,488.75h7.24c.4,0,.75-.1,1.06-.3.3-.2.54-.49.71-.86s.26-.8.26-1.29c0-.49-.08-.92-.25-1.29-.17-.37-.4-.66-.71-.86-.31-.2-.66-.3-1.07-.3h-7.24v-3.78h7.56c1.15,0,2.15.26,3.02.77.87.52,1.54,1.24,2.02,2.18.48.94.72,2.03.72,3.27s-.24,2.33-.72,3.27c-.48.94-1.15,1.67-2.03,2.18-.87.52-1.88.77-3.01.77h-7.56v-3.78ZM998.15,491.89l4.19-.66,5.61,9.68h-4.75l-5.05-9.02Z"/>
    <path class="cls-2" d="M1015.1,500.91h-4.07v-20.82h4.07v20.82ZM1011.03,504.06h3.92v3.99h-3.92v-3.99Z"/>
  </g>
  <g>
    <path class="cls-2" d="M398.02,526.12h21v5.2h-21v-5.2ZM405.82,528.46h5.4v26.3h-5.4v-26.3Z"/>
    <path class="cls-2" d="M422.17,526.1h5.4v28.66h-5.4v-28.66ZM424.32,538.04h9.97c.55,0,1.04-.14,1.46-.41.42-.28.75-.67.98-1.18.23-.51.35-1.1.36-1.77,0-.67-.12-1.26-.34-1.77-.23-.51-.56-.91-.98-1.18-.42-.28-.91-.41-1.48-.41h-9.97v-5.2h10.4c1.58,0,2.96.35,4.16,1.06,1.19.71,2.12,1.71,2.78,3s.98,2.79.98,4.5-.33,3.21-.98,4.5c-.66,1.29-1.59,2.29-2.79,3s-2.58,1.06-4.15,1.06h-10.4v-5.2ZM430.35,542.35l5.77-.91,7.72,13.32h-6.54l-6.95-12.41Z"/>
    <path class="cls-2" d="M452.08,553.81c-1.56-.83-2.75-2.05-3.57-3.64-.81-1.6-1.22-3.52-1.22-5.76v-18.28h5.4v18.42c0,1.64.44,2.92,1.32,3.82.88.91,2.12,1.36,3.72,1.36s2.87-.45,3.75-1.36c.89-.91,1.33-2.18,1.33-3.82v-18.42h5.4v18.28c0,2.25-.41,4.17-1.23,5.76-.82,1.6-2.02,2.81-3.59,3.64s-3.46,1.25-5.66,1.25-4.09-.42-5.65-1.25Z"/>
    <path class="cls-2" d="M473.73,526.12h6.6l10.66,21.95-.47.51v-22.46h5.16v28.62h-6.64l-10.62-21.61.47-.51v22.12h-5.16v-28.62Z"/>
    <path class="cls-2" d="M522.34,538.75v5.59c0,2.13-.43,4-1.29,5.62-.86,1.62-2.08,2.88-3.65,3.76s-3.4,1.33-5.48,1.33-3.93-.42-5.53-1.25c-1.6-.83-2.83-2.01-3.7-3.54-.87-1.52-1.31-3.29-1.31-5.3v-8.45c0-2.13.43-4,1.29-5.61s2.08-2.87,3.65-3.75c1.58-.89,3.4-1.33,5.48-1.33,1.71,0,3.28.35,4.73,1.05,1.44.7,2.65,1.7,3.61,2.98s1.62,2.78,1.96,4.47h-5.83c-.2-.6-.52-1.13-.98-1.57-.45-.44-.98-.78-1.6-1-.61-.23-1.24-.34-1.9-.34-.96,0-1.8.21-2.53.63-.73.42-1.29,1.02-1.69,1.79-.4.78-.6,1.67-.6,2.68v8.45c0,.89.2,1.68.61,2.36s.99,1.21,1.73,1.58c.75.37,1.62.55,2.6.55s1.82-.2,2.55-.6c.73-.4,1.29-.98,1.68-1.74s.59-1.66.59-2.7v-.47h-4.33v-5.2h9.93Z"/>
    <path class="cls-2" d="M534.95,526.12h21v5.2h-21v-5.2ZM542.75,528.46h5.4v26.3h-5.4v-26.3Z"/>
    <path class="cls-2" d="M565.53,526.12h3.43l10.95,28.64h-5.81l-6.86-19.56-6.85,19.56h-5.81l10.95-28.64ZM559.83,544.97h15.07v5.2h-15.07v-5.2ZM574.15,521.43l-3.13,2.76-3.84-2.96-3.84,2.96-3.13-2.76,6.97-5.4,6.97,5.4Z"/>
    <path class="cls-2" d="M601.48,526.12h7.11v28.64h-4.91v-22.24l.2,1.26-5.48,17.79h-4.77l-5.48-17.39.2-1.66v22.24h-4.91v-28.64h7.11l5.46,19.31,5.46-19.31Z"/>
    <path class="cls-2" d="M621.79,526.12h21v5.2h-21v-5.2ZM629.59,528.46h5.4v26.3h-5.4v-26.3Z"/>
    <path class="cls-2" d="M651.14,554.76h-5.59v-28.64h5.59v28.64Z"/>
    <path class="cls-2" d="M657.05,526.12h5.4v28.64h-5.4v-28.64ZM659,526.12h17.24v5.2h-17.24v-5.2ZM659,537.94h15.07v5.2h-15.07v-5.2ZM659,549.56h17.24v5.2h-17.24v-5.2ZM673.91,521.43l-3.13,2.76-3.84-2.96-3.84,2.96-3.13-2.76,6.97-5.4,6.97,5.4ZM669.22,514.58l5.44-4.83,3.58,3.68-5.81,4.45-3.21-3.31Z"/>
    <path class="cls-2" d="M681.16,526.12h6.6l10.66,21.95-.47.51v-22.46h5.16v28.62h-6.64l-10.62-21.61.47-.51v22.12h-5.16v-28.62Z"/>
    <path class="cls-2" d="M729.78,538.75v5.59c0,2.13-.43,4-1.29,5.62s-2.08,2.88-3.65,3.76c-1.58.89-3.4,1.33-5.48,1.33s-3.93-.42-5.53-1.25-2.83-2.01-3.7-3.54c-.87-1.52-1.31-3.29-1.31-5.3v-8.45c0-2.13.43-4,1.29-5.61.86-1.62,2.08-2.87,3.65-3.75,1.58-.89,3.4-1.33,5.48-1.33,1.71,0,3.28.35,4.73,1.05,1.44.7,2.65,1.7,3.62,2.98.96,1.29,1.62,2.78,1.96,4.47h-5.83c-.2-.6-.52-1.13-.98-1.57-.45-.44-.98-.78-1.6-1-.61-.23-1.24-.34-1.9-.34-.96,0-1.8.21-2.53.63-.73.42-1.29,1.02-1.69,1.79-.4.78-.6,1.67-.6,2.68v8.45c0,.89.2,1.68.61,2.36.41.68.98,1.21,1.73,1.58.75.37,1.62.55,2.6.55s1.82-.2,2.55-.6c.73-.4,1.29-.98,1.68-1.74.39-.76.59-1.66.59-2.7v-.47h-4.33v-5.2h9.93Z"/>
    <path class="cls-2" d="M742.39,526.12h21v5.2h-21v-5.2ZM750.19,528.46h5.4v26.3h-5.4v-26.3Z"/>
    <path class="cls-2" d="M766.54,526.1h5.4v28.66h-5.4v-28.66ZM768.69,538.04h9.97c.55,0,1.04-.14,1.46-.41.42-.28.75-.67.98-1.18.23-.51.35-1.1.36-1.77,0-.67-.12-1.26-.34-1.77-.23-.51-.55-.91-.98-1.18-.42-.28-.91-.41-1.48-.41h-9.97v-5.2h10.4c1.58,0,2.96.35,4.16,1.06,1.19.71,2.12,1.71,2.78,3,.66,1.29.99,2.79.99,4.5s-.33,3.21-.99,4.5c-.66,1.29-1.59,2.29-2.79,3-1.2.71-2.58,1.06-4.15,1.06h-10.4v-5.2ZM774.71,542.35l5.77-.91,7.72,13.32h-6.54l-6.95-12.41Z"/>
    <path class="cls-2" d="M796.44,553.81c-1.56-.83-2.75-2.05-3.57-3.64-.81-1.6-1.22-3.52-1.22-5.76v-18.28h5.4v18.42c0,1.64.44,2.92,1.32,3.82s2.12,1.36,3.72,1.36,2.87-.45,3.75-1.36c.89-.91,1.33-2.18,1.33-3.82v-18.42h5.4v18.28c0,2.25-.41,4.17-1.23,5.76-.82,1.6-2.02,2.81-3.58,3.64s-3.46,1.25-5.66,1.25-4.09-.42-5.65-1.25Z"/>
    <path class="cls-2" d="M818.09,526.12h6.6l10.66,21.95-.47.51v-22.46h5.16v28.62h-6.64l-10.62-21.61.47-.51v22.12h-5.16v-28.62Z"/>
    <path class="cls-2" d="M866.71,538.75v5.59c0,2.13-.43,4-1.29,5.62s-2.08,2.88-3.65,3.76c-1.58.89-3.4,1.33-5.48,1.33s-3.93-.42-5.53-1.25-2.83-2.01-3.7-3.54c-.87-1.52-1.31-3.29-1.31-5.3v-8.45c0-2.13.43-4,1.29-5.61.86-1.62,2.08-2.87,3.65-3.75,1.58-.89,3.4-1.33,5.48-1.33,1.71,0,3.28.35,4.73,1.05,1.44.7,2.65,1.7,3.62,2.98.96,1.29,1.62,2.78,1.96,4.47h-5.83c-.2-.6-.52-1.13-.98-1.57-.45-.44-.98-.78-1.6-1-.61-.23-1.24-.34-1.9-.34-.96,0-1.8.21-2.53.63-.73.42-1.29,1.02-1.69,1.79-.4.78-.6,1.67-.6,2.68v8.45c0,.89.2,1.68.61,2.36.41.68.98,1.21,1.73,1.58.75.37,1.62.55,2.6.55s1.82-.2,2.55-.6c.73-.4,1.29-.98,1.68-1.74.39-.76.59-1.66.59-2.7v-.47h-4.33v-5.2h9.93Z"/>
    <path class="cls-2" d="M901.28,526.12h7.11v28.64h-4.9v-22.24l.2,1.26-5.48,17.79h-4.77l-5.48-17.39.2-1.66v22.24h-4.9v-28.64h7.11l5.46,19.31,5.46-19.31Z"/>
    <path class="cls-2" d="M919.08,553.75c-1.58-.87-2.81-2.11-3.67-3.7-.87-1.6-1.3-3.44-1.3-5.55v-8.12c0-2.1.43-3.95,1.3-5.54.87-1.6,2.09-2.83,3.67-3.7,1.58-.87,3.41-1.31,5.49-1.31s3.9.44,5.49,1.31c1.58.87,2.81,2.11,3.67,3.7s1.3,3.44,1.3,5.54v8.12c0,2.1-.43,3.95-1.3,5.55s-2.09,2.83-3.67,3.7c-1.58.87-3.41,1.31-5.49,1.31s-3.9-.44-5.49-1.31ZM931.48,521.43l-3.13,2.76-3.84-2.96-3.84,2.96-3.13-2.76,6.97-5.4,6.97,5.4ZM927.13,549.04c.74-.41,1.3-1,1.7-1.76s.6-1.64.6-2.64v-8.39c0-1-.2-1.88-.6-2.64s-.97-1.35-1.7-1.76c-.74-.41-1.59-.62-2.56-.62s-1.83.21-2.56.62c-.74.41-1.3,1-1.7,1.76-.4.76-.6,1.64-.6,2.64v8.39c0,1,.2,1.88.6,2.64.4.76.97,1.35,1.7,1.76s1.59.62,2.56.62,1.83-.21,2.56-.62ZM921.87,559.1h5.4v5.5h-5.4v-5.5Z"/>
    <path class="cls-2" d="M944.13,553.81c-1.55-.83-2.73-2.05-3.55-3.64s-1.22-3.52-1.22-5.78v-7.86c0-2.26.41-4.19,1.22-5.78s2-2.81,3.55-3.65,3.42-1.26,5.59-1.26c1.8,0,3.41.39,4.83,1.16,1.42.78,2.59,1.9,3.52,3.38s1.57,3.26,1.92,5.35h-5.59c-.21-.95-.54-1.75-.98-2.42-.44-.67-.97-1.18-1.6-1.54s-1.32-.53-2.1-.53c-1.01,0-1.87.21-2.58.62-.71.41-1.25,1.02-1.62,1.81-.37.79-.56,1.75-.56,2.87v7.86c0,1.12.19,2.07.56,2.86.38.79.92,1.39,1.62,1.8.71.41,1.57.62,2.58.62.79,0,1.5-.17,2.13-.52.63-.35,1.16-.86,1.6-1.53.43-.67.75-1.48.95-2.44h5.59c-.37,2.09-1.01,3.87-1.94,5.35s-2.09,2.6-3.51,3.38c-1.41.78-3.02,1.16-4.82,1.16-2.18,0-4.04-.42-5.59-1.25Z"/>
    <path class="cls-2" d="M993.77,526.12h7.11v28.64h-4.9v-22.24l.2,1.26-5.48,17.79h-4.77l-5.48-17.39.2-1.66v22.24h-4.9v-28.64h7.11l5.46,19.31,5.46-19.31Z"/>
    <path class="cls-2" d="M1012.39,554.76h-5.59v-28.64h5.59v28.64Z"/>
    <path class="cls-2" d="M1018.3,526.12h5.4v28.64h-5.4v-28.64ZM1020.25,526.12h17.24v5.2h-17.24v-5.2ZM1020.25,537.94h15.07v5.2h-15.07v-5.2ZM1020.25,549.56h17.24v5.2h-17.24v-5.2ZM1035.16,521.43l-3.13,2.76-3.84-2.96-3.84,2.96-3.13-2.76,6.97-5.4,6.97,5.4Z"/>
    <path class="cls-2" d="M1042.41,526.12h6.6l10.66,21.95-.47.51v-22.46h5.16v28.62h-6.64l-10.62-21.61.47-.51v22.12h-5.16v-28.62Z"/>
  </g>
  <g>
    <path class="cls-2" d="M459.89,599.93c-.95-.2-1.84-.49-2.68-.88-.84-.39-1.58-.85-2.24-1.4l1.82-3.24c.8.66,1.73,1.17,2.78,1.52,1.05.36,2.13.54,3.24.54,1.28,0,2.27-.22,2.98-.65.71-.43,1.06-1.05,1.06-1.84h0c0-.57-.16-1.01-.47-1.33s-.73-.56-1.23-.72c-.51-.15-1.15-.29-1.95-.42-.03,0-.05-.01-.08-.01s-.05,0-.08-.01l-.31-.04c-1.39-.22-2.55-.49-3.46-.82-.92-.33-1.69-.91-2.33-1.73-.64-.83-.96-2-.96-3.51h0c0-1.36.3-2.51.9-3.46.6-.96,1.47-1.68,2.62-2.18,1.15-.5,2.53-.75,4.15-.75.74,0,1.51.09,2.28.26.78.17,1.54.42,2.28.74.74.33,1.45.72,2.12,1.17l-1.66,3.32c-.8-.55-1.64-.98-2.51-1.29-.87-.3-1.71-.46-2.51-.46-1.2,0-2.13.2-2.79.59-.66.4-.99.95-.99,1.67h0c0,.62.17,1.09.52,1.44.34.35.77.6,1.27.77.51.16,1.22.33,2.13.52.04,0,.08.02.11.02s.08.01.11.02c.06,0,.11.02.16.04.05.01.11.03.16.04,1.32.26,2.42.57,3.3.94.88.37,1.62.96,2.21,1.78.59.82.89,1.93.89,3.34v.03c0,1.33-.31,2.46-.93,3.41-.62.94-1.52,1.67-2.71,2.16-1.19.5-2.62.74-4.29.74-.99,0-1.96-.1-2.91-.3Z"/>
    <path class="cls-2" d="M474.03,579.2h3.92v20.82h-3.92v-20.82ZM476.01,596.23h5c1.29,0,2.29-.31,2.99-.93s1.06-1.5,1.06-2.63v-6.13c0-1.14-.35-2.01-1.06-2.63-.71-.62-1.7-.93-2.99-.93h-5v-3.78h4.91c1.74,0,3.22.29,4.45.87,1.23.58,2.16,1.43,2.8,2.55.64,1.12.96,2.46.96,4.04v5.9c0,1.5-.31,2.81-.92,3.92-.62,1.12-1.54,1.99-2.77,2.61-1.23.62-2.74.93-4.52.93h-4.9v-3.78Z"/>
    <path class="cls-2" d="M490.41,579.2h15.26v3.78h-15.26v-3.78ZM496.08,580.9h3.92v19.11h-3.92v-19.11Z"/>
    <path class="cls-2" d="M505.31,585.29h3.92v3.92h-3.92v-3.92ZM505.31,596.09h3.92v3.92h-3.92v-3.92Z"/>
    <path class="cls-2" d="M521.92,598.66c-1.06-1.05-1.59-2.49-1.59-4.35v-9.46c0-1.87.53-3.32,1.6-4.36,1.06-1.04,2.61-1.55,4.63-1.55s3.58.52,4.64,1.55c1.06,1.03,1.59,2.49,1.59,4.37v9.46c0,1.87-.53,3.32-1.6,4.36-1.06,1.04-2.61,1.55-4.63,1.55s-3.58-.52-4.64-1.57ZM528.31,595.64c.37-.54.56-1.31.56-2.33v-7.46c0-1.01-.19-1.79-.56-2.33s-.95-.81-1.75-.81-1.37.27-1.75.81-.56,1.31-.56,2.33v7.46c0,1.01.19,1.79.56,2.33.37.54.95.81,1.75.81s1.37-.27,1.75-.81Z"/>
    <path class="cls-2" d="M536.19,596.48l7.14-9.39c.32-.42.58-.85.75-1.3.18-.44.26-.86.26-1.24v-.03c0-.56-.18-1-.54-1.3s-.88-.46-1.55-.46-1.17.21-1.57.64-.64,1.03-.73,1.81h0s-4.02.01-4.02.01h0c.09-1.31.4-2.43.94-3.36s1.27-1.65,2.18-2.14c.92-.49,1.98-.74,3.18-.74,1.3,0,2.41.21,3.33.64.92.42,1.62,1.04,2.1,1.85s.72,1.79.72,2.93h0c0,.96-.17,1.9-.49,2.83s-.79,1.77-1.38,2.53l-5.13,6.47h7.12v3.78h-12.31v-3.54Z"/>
    <path class="cls-2" d="M554.1,599.54c-.98-.46-1.77-1.13-2.35-2-.58-.88-.9-1.92-.96-3.14h4.05c.06.43.18.79.38,1.1.2.3.45.53.75.69.31.16.66.24,1.06.24.74,0,1.32-.21,1.73-.62.41-.42.61-1,.61-1.75v-.49c0-.79-.16-1.4-.49-1.83-.33-.43-.8-.64-1.41-.64h-1.76v-3.78h1.76c.5,0,.88-.19,1.15-.57s.41-.9.41-1.58v-.36c0-.64-.15-1.13-.45-1.48s-.72-.52-1.27-.52c-.35,0-.68.09-.97.27-.29.18-.54.44-.74.79-.2.34-.34.76-.43,1.25h-4.04c.11-1.27.46-2.36,1.02-3.29.57-.92,1.31-1.62,2.23-2.1.92-.48,1.94-.72,3.06-.72,1.84,0,3.27.47,4.27,1.41,1.01.94,1.51,2.27,1.51,4v.63c0,.96-.24,1.8-.73,2.52-.49.72-1.18,1.25-2.08,1.6,1,.23,1.78.75,2.33,1.58.55.82.82,1.87.82,3.13v.63c0,1.21-.24,2.25-.72,3.11-.48.86-1.17,1.51-2.09,1.96-.92.45-2.02.67-3.31.67s-2.38-.23-3.36-.69Z"/>
    <path class="cls-2" d="M569.61,599.54c-.98-.46-1.77-1.13-2.35-2s-.9-1.92-.96-3.14h4.05c.06.43.18.79.38,1.1.2.3.45.53.75.69.31.16.66.24,1.06.24.74,0,1.32-.21,1.73-.62.41-.42.61-1,.61-1.75v-.49c0-.79-.17-1.4-.49-1.83s-.8-.64-1.41-.64h-1.76v-3.78h1.76c.5,0,.88-.19,1.15-.57s.41-.9.41-1.58v-.36c0-.64-.15-1.13-.45-1.48s-.72-.52-1.27-.52c-.35,0-.68.09-.97.27-.29.18-.54.44-.74.79-.2.34-.34.76-.43,1.25h-4.04c.11-1.27.46-2.36,1.02-3.29.57-.92,1.31-1.62,2.23-2.1.92-.48,1.94-.72,3.06-.72,1.84,0,3.27.47,4.27,1.41,1.01.94,1.51,2.27,1.51,4v.63c0,.96-.24,1.8-.73,2.52-.49.72-1.18,1.25-2.08,1.6,1,.23,1.78.75,2.33,1.58.55.82.82,1.87.82,3.13v.63c0,1.21-.24,2.25-.72,3.11-.48.86-1.17,1.51-2.09,1.96-.92.45-2.02.67-3.31.67s-2.38-.23-3.36-.69Z"/>
    <path class="cls-2" d="M582.17,596.09h3.92v3.92h-3.92v-3.92Z"/>
    <path class="cls-2" d="M591.76,599.54c-.98-.46-1.77-1.13-2.35-2s-.9-1.92-.96-3.14h4.05c.06.43.18.79.38,1.1.2.3.45.53.75.69.31.16.66.24,1.06.24.74,0,1.32-.21,1.73-.62.41-.42.61-1,.61-1.75v-.49c0-.79-.17-1.4-.49-1.83s-.8-.64-1.41-.64h-1.76v-3.78h1.76c.5,0,.88-.19,1.15-.57s.41-.9.41-1.58v-.36c0-.64-.15-1.13-.45-1.48s-.72-.52-1.27-.52c-.35,0-.68.09-.97.27-.29.18-.54.44-.74.79-.2.34-.34.76-.43,1.25h-4.04c.11-1.27.46-2.36,1.02-3.29.57-.92,1.31-1.62,2.23-2.1.92-.48,1.94-.72,3.06-.72,1.84,0,3.27.47,4.27,1.41,1.01.94,1.51,2.27,1.51,4v.63c0,.96-.24,1.8-.73,2.52-.49.72-1.18,1.25-2.08,1.6,1,.23,1.78.75,2.33,1.58.55.82.82,1.87.82,3.13v.63c0,1.21-.24,2.25-.72,3.11-.48.86-1.17,1.51-2.09,1.96-.92.45-2.02.67-3.31.67s-2.38-.23-3.36-.69Z"/>
    <path class="cls-2" d="M607.73,599.51c-1-.48-1.77-1.15-2.31-2.03-.54-.87-.82-1.89-.82-3.04v-.34c0-1.04.29-2.02.86-2.93.57-.92,1.34-1.61,2.29-2.08-.82-.4-1.48-.97-1.98-1.72s-.74-1.54-.74-2.38v-.54c0-1.09.25-2.04.77-2.87s1.23-1.46,2.16-1.92c.93-.45,2.01-.68,3.24-.68s2.31.23,3.24.68c.93.45,1.65,1.09,2.16,1.92.51.83.77,1.78.77,2.87v.54c0,.86-.25,1.66-.76,2.4-.51.74-1.17,1.31-2,1.7.96.48,1.74,1.17,2.32,2.08.58.91.87,1.89.87,2.93v.34c0,1.16-.27,2.17-.82,3.04-.54.87-1.31,1.55-2.31,2.03-1,.48-2.15.72-3.47.72s-2.47-.24-3.47-.72ZM612.59,596.13c.41-.21.72-.52.94-.91s.34-.84.34-1.35v-.2c0-.47-.11-.88-.34-1.23-.22-.35-.54-.63-.94-.82-.4-.2-.87-.29-1.4-.29s-1,.1-1.4.29c-.4.2-.71.47-.94.83-.22.36-.34.77-.34,1.24v.21c0,.51.11.95.34,1.34.22.39.54.68.95.89.41.21.87.32,1.4.32s.99-.11,1.4-.32ZM612.38,587.22c.34-.2.6-.47.79-.83.19-.36.28-.77.28-1.24v-.2c0-.44-.09-.82-.28-1.15-.19-.33-.45-.58-.79-.77s-.73-.27-1.18-.27-.84.09-1.18.27-.6.44-.79.77c-.19.33-.28.72-.28,1.16v.21c0,.46.09.86.28,1.22.19.35.45.63.79.82.34.2.73.29,1.18.29s.84-.1,1.18-.29Z"/>
    <path class="cls-2" d="M624.39,599.49c-.89-.49-1.61-1.21-2.15-2.15s-.85-2.05-.94-3.34h0s3.92-.01,3.92-.01h0c.08.78.31,1.37.7,1.8s.9.64,1.53.64c.69,0,1.22-.22,1.6-.67.38-.45.57-1.08.57-1.9v-1.75c0-.82-.17-1.45-.51-1.9-.34-.44-.81-.67-1.42-.67-.56,0-1.04.14-1.44.43-.4.29-.67.69-.82,1.2h-3.67v-11.97h11.18v3.78h-7.26v3.68c.3-.29.7-.51,1.21-.68.51-.17,1.02-.25,1.52-.25,1.08,0,2,.25,2.77.74.77.5,1.35,1.22,1.75,2.18.4.95.6,2.1.6,3.45v1.75c0,1.35-.24,2.5-.72,3.45-.48.95-1.18,1.68-2.1,2.18s-2.02.75-3.32.75c-1.12,0-2.12-.25-3.01-.74Z"/>
    <path class="cls-2" d="M640.35,599.49c-.89-.49-1.61-1.21-2.15-2.15s-.85-2.05-.94-3.34h0s3.92-.01,3.92-.01h0c.08.78.31,1.37.7,1.8s.9.64,1.53.64c.69,0,1.22-.22,1.6-.67.38-.45.57-1.08.57-1.9v-1.75c0-.82-.17-1.45-.51-1.9-.34-.44-.81-.67-1.42-.67-.56,0-1.04.14-1.44.43-.4.29-.67.69-.82,1.2h-3.67v-11.97h11.18v3.78h-7.26v3.68c.3-.29.7-.51,1.21-.68.51-.17,1.02-.25,1.52-.25,1.08,0,2,.25,2.77.74.77.5,1.35,1.22,1.75,2.18.4.95.6,2.1.6,3.45v1.75c0,1.35-.24,2.5-.72,3.45-.48.95-1.18,1.68-2.1,2.18s-2.02.75-3.32.75c-1.12,0-2.12-.25-3.01-.74Z"/>
    <path class="cls-2" d="M652.73,596.09h3.92v3.92h-3.92v-3.92Z"/>
    <path class="cls-2" d="M662.79,599.51c-1-.48-1.77-1.15-2.31-2.03-.54-.87-.82-1.89-.82-3.04v-.34c0-1.04.29-2.02.86-2.93.57-.92,1.34-1.61,2.29-2.08-.82-.4-1.48-.97-1.98-1.72s-.74-1.54-.74-2.38v-.54c0-1.09.25-2.04.77-2.87s1.23-1.46,2.16-1.92c.93-.45,2.01-.68,3.24-.68s2.31.23,3.24.68c.93.45,1.65,1.09,2.16,1.92.51.83.77,1.78.77,2.87v.54c0,.86-.25,1.66-.76,2.4-.51.74-1.17,1.31-2,1.7.96.48,1.74,1.17,2.32,2.08.58.91.87,1.89.87,2.93v.34c0,1.16-.27,2.17-.82,3.04-.54.87-1.31,1.55-2.31,2.03-1,.48-2.15.72-3.47.72s-2.47-.24-3.47-.72ZM667.66,596.13c.41-.21.72-.52.94-.91s.34-.84.34-1.35v-.2c0-.47-.11-.88-.34-1.23-.22-.35-.54-.63-.94-.82-.4-.2-.87-.29-1.4-.29s-1,.1-1.4.29c-.4.2-.71.47-.94.83-.22.36-.34.77-.34,1.24v.21c0,.51.11.95.34,1.34.22.39.54.68.95.89.41.21.87.32,1.4.32s.99-.11,1.4-.32ZM667.44,587.22c.34-.2.6-.47.79-.83.19-.36.28-.77.28-1.24v-.2c0-.44-.09-.82-.28-1.15-.19-.33-.45-.58-.79-.77s-.73-.27-1.18-.27-.84.09-1.18.27-.6.44-.79.77c-.19.33-.28.72-.28,1.16v.21c0,.46.09.86.28,1.22.19.35.45.63.79.82.34.2.73.29,1.18.29s.84-.1,1.18-.29Z"/>
    <path class="cls-2" d="M678.74,599.49c-.91-.49-1.61-1.21-2.08-2.15s-.72-2.07-.72-3.4h0c0-.77.09-1.57.28-2.41.19-.84.45-1.68.79-2.53.06-.14.12-.29.18-.43.06-.14.13-.28.19-.42l4.22-8.96h4.44l-5.01,10.38-.99-.52c.24-.45.59-.8,1.05-1.04s.99-.37,1.6-.37c1.14,0,2.12.24,2.93.73.81.49,1.43,1.2,1.85,2.13s.64,2.05.64,3.36h0c0,1.35-.24,2.5-.72,3.45-.48.96-1.17,1.68-2.08,2.18-.91.5-2.01.74-3.3.74s-2.38-.25-3.29-.74ZM683.63,595.84c.38-.41.57-.98.57-1.73h0c0-.87-.19-1.53-.57-2s-.91-.69-1.61-.69-1.22.24-1.6.71c-.38.47-.57,1.13-.57,1.98h0c0,.76.19,1.33.57,1.73.38.4.91.6,1.6.6s1.23-.2,1.61-.61Z"/>
    <path class="cls-2" d="M694.33,599.51c-1-.48-1.77-1.15-2.31-2.03-.54-.87-.82-1.89-.82-3.04v-.34c0-1.04.29-2.02.86-2.93.57-.92,1.34-1.61,2.29-2.08-.82-.4-1.48-.97-1.98-1.72s-.74-1.54-.74-2.38v-.54c0-1.09.25-2.04.77-2.87s1.23-1.46,2.16-1.92c.93-.45,2.01-.68,3.24-.68s2.31.23,3.24.68c.93.45,1.65,1.09,2.16,1.92.51.83.77,1.78.77,2.87v.54c0,.86-.25,1.66-.76,2.4-.51.74-1.17,1.31-2,1.7.96.48,1.74,1.17,2.32,2.08.58.91.87,1.89.87,2.93v.34c0,1.16-.27,2.17-.82,3.04-.54.87-1.31,1.55-2.31,2.03-1,.48-2.15.72-3.47.72s-2.47-.24-3.47-.72ZM699.2,596.13c.41-.21.72-.52.94-.91s.34-.84.34-1.35v-.2c0-.47-.11-.88-.34-1.23-.22-.35-.54-.63-.94-.82-.4-.2-.87-.29-1.4-.29s-1,.1-1.4.29c-.4.2-.71.47-.94.83-.22.36-.34.77-.34,1.24v.21c0,.51.11.95.34,1.34.22.39.54.68.95.89.41.21.87.32,1.4.32s.99-.11,1.4-.32ZM698.98,587.22c.34-.2.6-.47.79-.83.19-.36.28-.77.28-1.24v-.2c0-.44-.09-.82-.28-1.15-.19-.33-.45-.58-.79-.77s-.73-.27-1.18-.27-.84.09-1.18.27-.6.44-.79.77c-.19.33-.28.72-.28,1.16v.21c0,.46.09.86.28,1.22.19.35.45.63.79.82.34.2.73.29,1.18.29s.84-.1,1.18-.29Z"/>
    <path class="cls-2" d="M726.12,590.66v3.78h-10.19v-3.78h10.19Z"/>
    <path class="cls-2" d="M739.3,598.66c-1.06-1.05-1.59-2.49-1.59-4.35v-9.46c0-1.87.53-3.32,1.6-4.36,1.06-1.04,2.61-1.55,4.63-1.55s3.58.52,4.64,1.55c1.06,1.03,1.59,2.49,1.59,4.37v9.46c0,1.87-.53,3.32-1.6,4.36-1.06,1.04-2.61,1.55-4.63,1.55s-3.58-.52-4.64-1.57ZM745.69,595.64c.37-.54.56-1.31.56-2.33v-7.46c0-1.01-.19-1.79-.56-2.33-.37-.54-.96-.81-1.75-.81s-1.37.27-1.75.81c-.37.54-.56,1.31-.56,2.33v7.46c0,1.01.19,1.79.56,2.33.37.54.96.81,1.75.81s1.37-.27,1.75-.81Z"/>
    <path class="cls-2" d="M756.81,599.51c-1-.48-1.77-1.15-2.31-2.03-.54-.87-.82-1.89-.82-3.04v-.34c0-1.04.29-2.02.86-2.93.57-.92,1.34-1.61,2.29-2.08-.82-.4-1.48-.97-1.98-1.72s-.74-1.54-.74-2.38v-.54c0-1.09.25-2.04.77-2.87s1.23-1.46,2.16-1.92c.93-.45,2.01-.68,3.24-.68s2.31.23,3.24.68c.93.45,1.65,1.09,2.16,1.92.51.83.77,1.78.77,2.87v.54c0,.86-.25,1.66-.76,2.4-.51.74-1.17,1.31-2,1.7.96.48,1.74,1.17,2.32,2.08.58.91.87,1.89.87,2.93v.34c0,1.16-.27,2.17-.82,3.04-.54.87-1.31,1.55-2.31,2.03-1,.48-2.15.72-3.47.72s-2.47-.24-3.47-.72ZM761.67,596.13c.41-.21.72-.52.94-.91s.34-.84.34-1.35v-.2c0-.47-.11-.88-.34-1.23-.22-.35-.54-.63-.94-.82-.4-.2-.87-.29-1.4-.29s-1,.1-1.4.29c-.4.2-.71.47-.94.83-.22.36-.34.77-.34,1.24v.21c0,.51.11.95.34,1.34.22.39.54.68.95.89.41.21.87.32,1.4.32s.99-.11,1.4-.32ZM761.46,587.22c.34-.2.6-.47.79-.83.19-.36.28-.77.28-1.24v-.2c0-.44-.09-.82-.28-1.15-.19-.33-.45-.58-.79-.77s-.73-.27-1.18-.27-.84.09-1.18.27-.6.44-.79.77c-.19.33-.28.72-.28,1.16v.21c0,.46.09.86.28,1.22.19.35.45.63.79.82.34.2.73.29,1.18.29s.84-.1,1.18-.29Z"/>
    <path class="cls-2" d="M775.98,600.01h-3.92v-16.21l-2.53.96v-4.17l3.11-1.4h3.35v20.82Z"/>
    <path class="cls-2" d="M787.08,589.68l.7.52c-.24.44-.6.76-1.08.97-.48.21-1.05.31-1.71.31-1.05,0-1.97-.25-2.77-.76s-1.42-1.22-1.85-2.14c-.44-.92-.66-1.99-.66-3.2h0c0-1.36.24-2.51.72-3.46s1.17-1.68,2.08-2.18c.91-.5,2.01-.75,3.3-.75s2.37.25,3.29.76c.91.51,1.61,1.24,2.08,2.21.48.96.72,2.12.72,3.48h0c0,.71-.1,1.46-.3,2.27s-.48,1.68-.84,2.61c-.05.13-.1.27-.15.4s-.11.26-.16.39l-3.72,8.92h-4.15l4.52-10.34ZM787.4,587.13c.38-.44.57-1.07.57-1.88h0c0-.8-.19-1.4-.57-1.83s-.91-.64-1.6-.64-1.23.21-1.61.64c-.38.43-.57,1.04-.57,1.82h0c0,.83.19,1.45.57,1.89.38.44.91.66,1.61.66s1.22-.22,1.6-.67Z"/>
    <path class="cls-2" d="M794.68,596.09h3.92v3.92h-3.92v-3.92Z"/>
    <path class="cls-2" d="M801.51,596.48l7.14-9.39c.32-.42.57-.85.75-1.3.18-.44.27-.86.27-1.24v-.03c0-.56-.18-1-.54-1.3-.36-.31-.88-.46-1.55-.46s-1.17.21-1.57.64c-.4.42-.64,1.03-.73,1.81h0s-4.02.01-4.02.01h0c.09-1.31.4-2.43.94-3.36.54-.94,1.27-1.65,2.18-2.14.92-.49,1.98-.74,3.18-.74,1.3,0,2.41.21,3.33.64s1.62,1.04,2.1,1.85c.48.81.72,1.79.72,2.93h0c0,.96-.17,1.9-.49,2.83s-.79,1.77-1.38,2.53l-5.12,6.47h7.12v3.78h-12.31v-3.54Z"/>
    <path class="cls-2" d="M818.48,599.49c-.91-.49-1.61-1.21-2.08-2.15s-.72-2.07-.72-3.4h0c0-.77.09-1.57.28-2.41.19-.84.45-1.68.79-2.53.06-.14.12-.29.18-.43.06-.14.13-.28.19-.42l4.22-8.96h4.44l-5.01,10.38-.99-.52c.24-.45.59-.8,1.05-1.04s.99-.37,1.6-.37c1.14,0,2.12.24,2.93.73.81.49,1.43,1.2,1.85,2.13s.64,2.05.64,3.36h0c0,1.35-.24,2.5-.72,3.45-.48.96-1.17,1.68-2.08,2.18-.91.5-2.01.74-3.3.74s-2.38-.25-3.29-.74ZM823.38,595.84c.38-.41.57-.98.57-1.73h0c0-.87-.19-1.53-.57-2s-.91-.69-1.61-.69-1.22.24-1.6.71c-.38.47-.57,1.13-.57,1.98h0c0,.76.19,1.33.57,1.73.38.4.91.6,1.6.6s1.23-.2,1.61-.61Z"/>
    <path class="cls-2" d="M832.75,598.66c-1.06-1.05-1.59-2.49-1.59-4.35v-9.46c0-1.87.53-3.32,1.6-4.36,1.06-1.04,2.61-1.55,4.63-1.55s3.58.52,4.64,1.55c1.06,1.03,1.59,2.49,1.59,4.37v9.46c0,1.87-.53,3.32-1.6,4.36-1.06,1.04-2.61,1.55-4.63,1.55s-3.58-.52-4.64-1.57ZM839.13,595.64c.37-.54.56-1.31.56-2.33v-7.46c0-1.01-.19-1.79-.56-2.33-.37-.54-.96-.81-1.75-.81s-1.37.27-1.75.81c-.37.54-.56,1.31-.56,2.33v7.46c0,1.01.19,1.79.56,2.33.37.54.96.81,1.75.81s1.37-.27,1.75-.81Z"/>
    <path class="cls-2" d="M845.98,596.09h3.92v3.92h-3.92v-3.92Z"/>
    <path class="cls-2" d="M855.57,599.54c-.98-.46-1.77-1.13-2.35-2s-.9-1.92-.96-3.14h4.05c.06.43.18.79.38,1.1.2.3.45.53.75.69.31.16.66.24,1.06.24.74,0,1.32-.21,1.73-.62.41-.42.61-1,.61-1.75v-.49c0-.79-.17-1.4-.49-1.83s-.8-.64-1.41-.64h-1.76v-3.78h1.76c.5,0,.88-.19,1.15-.57s.41-.9.41-1.58v-.36c0-.64-.15-1.13-.45-1.48s-.72-.52-1.27-.52c-.35,0-.68.09-.97.27-.29.18-.54.44-.74.79-.2.34-.34.76-.43,1.25h-4.04c.11-1.27.46-2.36,1.02-3.29.57-.92,1.31-1.62,2.23-2.1.92-.48,1.94-.72,3.06-.72,1.84,0,3.27.47,4.27,1.41,1.01.94,1.51,2.27,1.51,4v.63c0,.96-.24,1.8-.73,2.52-.49.72-1.18,1.25-2.08,1.6,1,.23,1.78.75,2.33,1.58.55.82.82,1.87.82,3.13v.63c0,1.21-.24,2.25-.72,3.11-.48.86-1.17,1.51-2.09,1.96-.92.45-2.02.67-3.31.67s-2.38-.23-3.36-.69Z"/>
    <path class="cls-2" d="M868.34,593.21l6.41-14h4.44l-6.24,13.83h9.35v3.78h-13.96v-3.61ZM876.74,587.77h3.92v12.25h-3.92v-12.25Z"/>
    <path class="cls-2" d="M888.39,599.49c-.89-.49-1.61-1.21-2.15-2.15s-.85-2.05-.94-3.34h0s3.92-.01,3.92-.01h0c.08.78.31,1.37.7,1.8s.9.64,1.53.64c.69,0,1.22-.22,1.6-.67.38-.45.57-1.08.57-1.9v-1.75c0-.82-.17-1.45-.51-1.9-.34-.44-.81-.67-1.42-.67-.56,0-1.04.14-1.44.43-.4.29-.67.69-.82,1.2h-3.67v-11.97h11.18v3.78h-7.26v3.68c.3-.29.7-.51,1.21-.68.51-.17,1.02-.25,1.52-.25,1.08,0,2,.25,2.77.74.77.5,1.35,1.22,1.75,2.18.4.95.6,2.1.6,3.45v1.75c0,1.35-.24,2.5-.72,3.45-.48.95-1.18,1.68-2.1,2.18s-2.02.75-3.32.75c-1.12,0-2.12-.25-3.01-.74Z"/>
    <path class="cls-2" d="M464.81,614.38h3.15l3.98,13.89,2.68-13.89h4.04l-4.8,20.82h-3.69l-3.69-14.55-3.87,14.55h-3.69l-4.8-20.82h4.04l2.68,13.89,3.98-13.89Z"/>
    <path class="cls-2" d="M482.21,634.63c-1.02-.52-1.79-1.28-2.33-2.28s-.8-2.2-.8-3.6v-1.67c0-1.47.26-2.73.77-3.77.51-1.04,1.25-1.83,2.23-2.38.98-.54,2.16-.82,3.54-.82,1.3,0,2.41.32,3.34.97.93.65,1.63,1.59,2.11,2.83.48,1.24.72,2.73.72,4.47v.97h-10.17v-2.65h6.59l-.04-.34c-.11-.86-.38-1.52-.81-1.99-.43-.47-1.01-.7-1.74-.7-.94,0-1.68.28-2.2.84-.52.56-.78,1.36-.78,2.39v1.89c0,1.01.28,1.79.85,2.35.57.55,1.36.83,2.38.83.52,0,1.05-.09,1.56-.28.52-.19.98-.45,1.4-.79l2.56,2.28c-.77.71-1.64,1.25-2.61,1.64-.96.39-1.94.58-2.92.58-1.43,0-2.66-.26-3.67-.78Z"/>
    <path class="cls-2" d="M495.23,614.38h3.92v20.82h-3.92v-20.82ZM500.36,634.75c-.63-.44-1.1-1.07-1.4-1.88l.2-3.39c0,.49.09.9.26,1.25s.42.61.75.79c.33.18.73.27,1.2.27.73,0,1.31-.24,1.71-.73.41-.49.61-1.17.61-2.06v-2.36c0-.91-.2-1.61-.61-2.11-.41-.5-.98-.75-1.71-.75-.47,0-.87.09-1.2.28-.33.19-.58.46-.75.81-.17.35-.26.78-.26,1.29l-.3-3.29c.4-.87.93-1.54,1.58-2.01.65-.47,1.38-.71,2.17-.71,1.05,0,1.95.25,2.7.76.75.51,1.32,1.25,1.71,2.22.39.97.59,2.14.59,3.51v2.38c0,1.36-.2,2.51-.59,3.47-.39.96-.96,1.69-1.71,2.2-.75.51-1.65.76-2.7.76-.87,0-1.62-.22-2.25-.67Z"/>
    <path class="cls-2" d="M514.27,635.18c-.84-.16-1.63-.39-2.36-.69s-1.38-.67-1.95-1.1l2.42-3.02c.72.46,1.46.81,2.25,1.06s1.53.37,2.23.37c.92,0,1.63-.1,2.13-.31.51-.21.76-.49.76-.85,0-.33-.11-.59-.33-.76-.22-.17-.5-.29-.84-.36-.34-.07-.83-.14-1.45-.19-.17-.02-.35-.04-.52-.06-.18-.02-.36-.04-.54-.06-.04,0-.08-.02-.12-.02-.04,0-.08,0-.12,0-1.11-.14-2-.32-2.66-.53s-1.23-.61-1.7-1.21-.69-1.46-.69-2.6c0-.99.24-1.84.72-2.55.48-.71,1.17-1.24,2.08-1.61.91-.37,2-.55,3.29-.55.75,0,1.51.08,2.25.23.75.15,1.47.37,2.15.66.69.29,1.32.63,1.9,1.03l-2.33,2.85c-.65-.36-1.33-.64-2.03-.84-.71-.2-1.38-.3-2.03-.3-.79,0-1.41.09-1.85.27-.44.18-.66.43-.66.76,0,.25.12.44.35.58.23.14.52.24.87.3.35.06.86.13,1.52.21.09,0,.17.02.26.03s.17.02.26.03c.04,0,.08.01.13.01s.09,0,.13.01c1.15.13,2.09.3,2.82.51.73.21,1.34.63,1.85,1.26.51.63.77,1.56.77,2.78,0,1.03-.25,1.91-.74,2.65-.5.73-1.22,1.29-2.18,1.68s-2.1.58-3.45.58c-.89,0-1.75-.08-2.59-.24Z"/>
    <path class="cls-2" d="M526.17,614.38h3.92v3.92h-3.92v-3.92ZM526.17,620.34h3.92v14.86h-3.92v-14.86Z"/>
    <path class="cls-2" d="M532.6,620.34h7.27v3.35h-7.27v-3.35ZM535.04,634.27c-.61-.66-.91-1.64-.91-2.94v-15.32h3.92v14.35c0,.36.07.64.21.84.14.2.35.29.63.29h.97v3.78h-1.98c-1.3,0-2.25-.33-2.86-1Z"/>
    <path class="cls-2" d="M546.01,634.63c-1.02-.52-1.79-1.28-2.33-2.28s-.8-2.2-.8-3.6v-1.67c0-1.47.26-2.73.77-3.77.51-1.04,1.25-1.83,2.23-2.38.98-.54,2.16-.82,3.54-.82,1.3,0,2.41.32,3.34.97.93.65,1.63,1.59,2.11,2.83.48,1.24.72,2.73.72,4.47v.97h-10.17v-2.65h6.59l-.04-.34c-.11-.86-.38-1.52-.81-1.99-.43-.47-1.01-.7-1.74-.7-.94,0-1.68.28-2.2.84-.52.56-.78,1.36-.78,2.39v1.89c0,1.01.28,1.79.85,2.35.57.55,1.36.83,2.38.83.52,0,1.05-.09,1.56-.28.52-.19.98-.45,1.4-.79l2.56,2.28c-.77.71-1.64,1.25-2.61,1.64-.96.39-1.94.58-2.92.58-1.43,0-2.66-.26-3.67-.78Z"/>
    <path class="cls-2" d="M557.81,620.48h3.92v3.92h-3.92v-3.92ZM557.81,631.27h3.92v3.92h-3.92v-3.92Z"/>
    <path class="cls-2" d="M581.81,614.38h3.15l3.98,13.89,2.68-13.89h4.04l-4.8,20.82h-3.69l-3.69-14.55-3.87,14.55h-3.69l-4.8-20.82h4.04l2.68,13.89,3.98-13.89Z"/>
    <path class="cls-2" d="M595.79,620.34h3.77l2.63,9.18,3.14-9.18h2.32l3.13,9.18,2.63-9.18h3.76l-4.58,14.86h-2.92l-3.19-9.69-3.19,9.69h-2.92l-4.58-14.86Z"/>
    <path class="cls-2" d="M618.47,620.34h3.77l2.63,9.18,3.14-9.18h2.32l3.13,9.18,2.63-9.18h3.76l-4.58,14.86h-2.92l-3.19-9.69-3.19,9.69h-2.92l-4.58-14.86Z"/>
    <path class="cls-2" d="M640.08,631.27h3.92v3.92h-3.92v-3.92Z"/>
    <path class="cls-2" d="M646.22,620.34h7.27v3.35h-7.27v-3.35ZM648.66,634.27c-.61-.66-.91-1.64-.91-2.94v-15.32h3.92v14.35c0,.36.07.64.21.84.14.2.35.29.63.29h.97v3.78h-1.98c-1.3,0-2.25-.33-2.86-1Z"/>
    <path class="cls-2" d="M656.71,614.38h3.92v3.92h-3.92v-3.92ZM656.71,620.34h3.92v14.86h-3.92v-14.86Z"/>
    <path class="cls-2" d="M666.98,634.63c-1.02-.52-1.79-1.28-2.33-2.28-.54-1-.8-2.2-.8-3.6v-1.67c0-1.47.25-2.73.77-3.77s1.25-1.83,2.23-2.38c.98-.54,2.16-.82,3.54-.82,1.3,0,2.41.32,3.34.97.93.65,1.63,1.59,2.11,2.83.48,1.24.72,2.73.72,4.47v.97h-10.17v-2.65h6.59l-.04-.34c-.11-.86-.38-1.52-.81-1.99-.43-.47-1.01-.7-1.74-.7-.94,0-1.68.28-2.2.84-.52.56-.78,1.36-.78,2.39v1.89c0,1.01.28,1.79.85,2.35.57.55,1.36.83,2.38.83.53,0,1.04-.09,1.56-.28.52-.19.98-.45,1.4-.79l2.56,2.28c-.77.71-1.64,1.25-2.61,1.64s-1.94.58-2.92.58c-1.43,0-2.66-.26-3.67-.78Z"/>
    <path class="cls-2" d="M680,620.34h3.92v14.86h-3.92v-14.86ZM688.59,626.19c0-.73-.21-1.29-.62-1.69-.42-.4-1-.6-1.77-.6s-1.29.2-1.68.61c-.4.41-.59.98-.59,1.71l-.3-3.29c.45-.94.99-1.64,1.61-2.1.62-.47,1.41-.7,2.35-.7,1.57,0,2.78.53,3.64,1.58s1.29,2.55,1.29,4.47v9.02h-3.92v-9Z"/>
    <path class="cls-2" d="M698.25,634.65c-.75-.51-1.32-1.24-1.71-2.2-.39-.96-.59-2.12-.59-3.47v-2.38c0-1.37.2-2.53.59-3.51.39-.97.96-1.71,1.71-2.22.75-.51,1.65-.76,2.7-.76.79,0,1.51.24,2.17.71.65.47,1.18,1.14,1.58,2.01l-.3,3.29c0-.51-.09-.94-.26-1.29-.17-.35-.42-.62-.75-.81-.33-.19-.73-.28-1.2-.28-.73,0-1.3.25-1.71.75-.41.5-.61,1.21-.61,2.11v2.36c0,.89.2,1.58.61,2.06.41.49.98.73,1.71.73.47,0,.87-.09,1.2-.27.33-.18.58-.44.75-.79.17-.34.26-.76.26-1.25l.2,3.39c-.31.81-.77,1.44-1.4,1.88-.63.44-1.38.67-2.25.67-1.05,0-1.95-.25-2.7-.76ZM698.48,640.62c-.93-.42-1.65-1-2.17-1.75l2.63-2.42c.33.36.73.64,1.2.84s.95.29,1.46.29c.82,0,1.49-.22,2.01-.67.52-.45.78-1.07.78-1.86v-14.7h3.92v14.42c0,1.36-.26,2.53-.78,3.51s-1.28,1.71-2.28,2.22c-1,.51-2.2.76-3.62.76-1.18,0-2.24-.21-3.17-.62Z"/>
    <path class="cls-2" d="M711.04,620.34h7.27v3.35h-7.27v-3.35ZM713.48,634.27c-.61-.66-.91-1.64-.91-2.94v-15.32h3.92v14.35c0,.36.07.64.21.84.14.2.35.29.63.29h.97v3.78h-1.98c-1.3,0-2.25-.33-2.86-1Z"/>
    <path class="cls-2" d="M721.75,620.34h4.21v14.86h-4.21v-14.86ZM729.41,624.04c-.28-.1-.6-.14-.96-.14-.79,0-1.41.26-1.84.77-.43.51-.65,1.22-.65,2.13l-.3-3.87c.41-.89.94-1.58,1.6-2.07.65-.49,1.37-.74,2.16-.74.62,0,1.18.1,1.68.29.5.2.94.49,1.31.87l-2.29,3.19c-.19-.19-.42-.33-.7-.43Z"/>
    <path class="cls-2" d="M738.19,629.37c0,.72.2,1.27.61,1.67.41.4.98.59,1.71.59s1.3-.2,1.7-.61c.4-.41.59-.99.59-1.74l.2,3.25c-.28.81-.74,1.49-1.38,2.05-.64.55-1.43.83-2.35.83-1.59,0-2.83-.51-3.69-1.54-.87-1.03-1.3-2.48-1.3-4.36v-9.18h3.92v9.03ZM742.8,620.34h3.91v14.86h-3.91v-14.86Z"/>
    <path class="cls-2" d="M750.57,620.34h3.92v14.86h-3.92v-14.86ZM759.16,626.19c0-.73-.21-1.29-.62-1.69-.42-.4-1-.6-1.77-.6s-1.29.2-1.68.61c-.4.41-.59.98-.59,1.71l-.3-3.29c.45-.94.99-1.64,1.61-2.1.62-.47,1.41-.7,2.35-.7,1.57,0,2.78.53,3.64,1.58s1.29,2.55,1.29,4.47v9.02h-3.92v-9Z"/>
    <path class="cls-2" d="M768.82,634.65c-.75-.51-1.32-1.24-1.71-2.2-.39-.96-.59-2.12-.59-3.47v-2.38c0-1.37.2-2.53.59-3.51.39-.97.96-1.71,1.71-2.22.75-.51,1.65-.76,2.7-.76.79,0,1.51.24,2.17.71.65.47,1.18,1.14,1.58,2.01l-.3,3.29c0-.51-.09-.94-.26-1.29-.17-.35-.42-.62-.75-.81-.33-.19-.73-.28-1.2-.28-.73,0-1.3.25-1.71.75-.41.5-.61,1.21-.61,2.11v2.36c0,.89.2,1.58.61,2.06.41.49.98.73,1.71.73.47,0,.87-.09,1.2-.27.33-.18.58-.44.75-.79.17-.34.26-.76.26-1.25l.2,3.39c-.31.81-.77,1.44-1.4,1.88-.63.44-1.38.67-2.25.67-1.05,0-1.95-.25-2.7-.76ZM769.05,640.62c-.93-.42-1.65-1-2.17-1.75l2.63-2.42c.33.36.73.64,1.2.84s.95.29,1.46.29c.82,0,1.49-.22,2.01-.67.52-.45.78-1.07.78-1.86v-14.7h3.92v14.42c0,1.36-.26,2.53-.78,3.51s-1.28,1.71-2.28,2.22c-1,.51-2.2.76-3.62.76-1.18,0-2.24-.21-3.17-.62Z"/>
    <path class="cls-2" d="M782.75,620.34h3.92v14.86h-3.92v-14.86ZM791.42,626.62c0-.87-.21-1.54-.64-2.01s-1.04-.71-1.82-.71c-.73,0-1.29.2-1.68.61-.4.41-.59.98-.59,1.71l-.3-3.29c.44-.92.99-1.61,1.65-2.09.66-.48,1.43-.72,2.32-.72,1.05,0,1.95.25,2.7.76.75.51,1.32,1.25,1.71,2.22.39.97.59,2.14.59,3.51v8.59h-3.92v-8.58ZM800.08,626.62c0-.87-.21-1.54-.62-2.01-.42-.47-1-.71-1.77-.71s-1.33.23-1.74.68c-.41.45-.61,1.1-.61,1.93l-.73-3.44c.47-.95,1.08-1.67,1.83-2.18s1.58-.77,2.5-.77c1.07,0,1.98.25,2.74.76s1.34,1.25,1.73,2.22c.4.97.59,2.14.59,3.51v8.59h-3.92v-8.58Z"/>
    <path class="cls-2" d="M810.38,634.65c-.96-.51-1.69-1.24-2.19-2.21s-.75-2.14-.75-3.5v-2.42c0-1.35.25-2.5.75-3.46.5-.96,1.23-1.69,2.19-2.19.96-.5,2.12-.75,3.47-.75s2.51.25,3.47.75c.96.5,1.69,1.23,2.19,2.19.5.96.75,2.11.75,3.46v2.46c0,1.36-.25,2.51-.75,3.47-.5.96-1.23,1.69-2.19,2.2-.96.51-2.12.76-3.47.76s-2.51-.25-3.47-.76ZM815.68,630.94c.44-.46.66-1.11.66-1.96v-2.46c0-.83-.22-1.47-.66-1.93-.44-.46-1.05-.69-1.85-.69s-1.39.23-1.83.69c-.43.46-.65,1.1-.65,1.93v2.46c0,.84.21,1.49.64,1.96s1.04.69,1.83.69,1.41-.23,1.85-.69Z"/>
    <path class="cls-2" d="M826.5,634.6c-1.01-.54-1.77-1.32-2.3-2.36-.53-1.03-.79-2.27-.79-3.72v-1.59c0-1.44.26-2.67.79-3.69.52-1.02,1.29-1.79,2.3-2.33s2.22-.8,3.63-.8c.81,0,1.58.09,2.3.28.72.19,1.37.46,1.94.81.57.35,1.05.78,1.43,1.29l-2.53,2.46c-.36-.33-.79-.59-1.27-.78-.49-.19-1-.28-1.53-.28-.99,0-1.76.26-2.3.79-.54.53-.82,1.28-.82,2.24v1.59c0,.99.27,1.76.82,2.3.54.54,1.31.81,2.3.81.54,0,1.06-.1,1.55-.3.49-.2.91-.49,1.26-.86l2.53,2.61c-.39.5-.87.92-1.45,1.27s-1.22.61-1.93.79c-.72.18-1.48.27-2.29.27-1.41,0-2.62-.27-3.63-.81Z"/>
    <path class="cls-2" d="M838.45,620.34h3.92v14.86h-3.92v-14.86ZM847.11,626.62c0-.87-.21-1.54-.64-2.01s-1.04-.71-1.82-.71c-.73,0-1.29.2-1.68.61-.4.41-.59.98-.59,1.71l-.3-3.29c.44-.92.99-1.61,1.65-2.09.66-.48,1.43-.72,2.32-.72,1.05,0,1.95.25,2.7.76.75.51,1.32,1.25,1.71,2.22.39.97.59,2.14.59,3.51v8.59h-3.92v-8.58ZM855.77,626.62c0-.87-.21-1.54-.62-2.01-.42-.47-1-.71-1.77-.71s-1.33.23-1.74.68c-.41.45-.61,1.1-.61,1.93l-.73-3.44c.47-.95,1.08-1.67,1.83-2.18s1.58-.77,2.5-.77c1.07,0,1.98.25,2.74.76s1.34,1.25,1.73,2.22c.4.97.59,2.14.59,3.51v8.59h-3.92v-8.58Z"/>
    <path class="cls-2" d="M863.34,614.38h3.92v3.92h-3.92v-3.92ZM863.34,620.34h3.92v14.86h-3.92v-14.86Z"/>
    <path class="cls-2" d="M873.61,634.63c-1.02-.52-1.79-1.28-2.33-2.28-.54-1-.8-2.2-.8-3.6v-1.67c0-1.47.25-2.73.77-3.77s1.25-1.83,2.23-2.38c.98-.54,2.16-.82,3.54-.82,1.3,0,2.41.32,3.34.97.93.65,1.63,1.59,2.11,2.83.48,1.24.72,2.73.72,4.47v.97h-10.17v-2.65h6.59l-.04-.34c-.11-.86-.38-1.52-.81-1.99-.43-.47-1.01-.7-1.74-.7-.94,0-1.68.28-2.2.84-.52.56-.78,1.36-.78,2.39v1.89c0,1.01.28,1.79.85,2.35.57.55,1.36.83,2.38.83.53,0,1.04-.09,1.56-.28.52-.19.98-.45,1.4-.79l2.56,2.28c-.77.71-1.64,1.25-2.61,1.64s-1.94.58-2.92.58c-1.43,0-2.66-.26-3.67-.78Z"/>
    <path class="cls-2" d="M886.63,620.34h3.92v14.86h-3.92v-14.86ZM895.23,626.19c0-.73-.21-1.29-.62-1.69-.42-.4-1-.6-1.77-.6s-1.29.2-1.68.61c-.4.41-.59.98-.59,1.71l-.3-3.29c.45-.94.99-1.64,1.61-2.1.62-.47,1.41-.7,2.35-.7,1.57,0,2.78.53,3.64,1.58s1.29,2.55,1.29,4.47v9.02h-3.92v-9Z"/>
    <path class="cls-2" d="M902.37,631.27h3.92v3.92h-3.92v-3.92Z"/>
    <path class="cls-2" d="M911.78,634.63c-1.02-.52-1.79-1.28-2.33-2.28-.54-1-.8-2.2-.8-3.6v-1.67c0-1.47.25-2.73.77-3.77s1.25-1.83,2.23-2.38c.98-.54,2.16-.82,3.54-.82,1.3,0,2.41.32,3.34.97.93.65,1.63,1.59,2.11,2.83.48,1.24.72,2.73.72,4.47v.97h-10.17v-2.65h6.59l-.04-.34c-.11-.86-.38-1.52-.81-1.99-.43-.47-1.01-.7-1.74-.7-.94,0-1.68.28-2.2.84-.52.56-.78,1.36-.78,2.39v1.89c0,1.01.28,1.79.85,2.35.57.55,1.36.83,2.38.83.53,0,1.04-.09,1.56-.28.52-.19.98-.45,1.4-.79l2.56,2.28c-.77.71-1.64,1.25-2.61,1.64s-1.94.58-2.92.58c-1.43,0-2.66-.26-3.67-.78Z"/>
    <path class="cls-2" d="M926.67,634.65c-.75-.51-1.32-1.24-1.71-2.2-.39-.96-.59-2.12-.59-3.47v-2.38c0-1.37.2-2.53.59-3.51.39-.97.96-1.71,1.71-2.22.75-.51,1.65-.76,2.7-.76.79,0,1.51.24,2.17.71.65.47,1.18,1.14,1.58,2.01l-.3,3.29c0-.51-.09-.94-.26-1.29-.17-.35-.42-.62-.75-.81-.33-.19-.73-.28-1.2-.28-.73,0-1.3.25-1.71.75-.41.5-.61,1.21-.61,2.11v2.36c0,.89.2,1.58.61,2.06.41.49.98.73,1.71.73.47,0,.87-.09,1.2-.27.33-.18.58-.44.75-.79.17-.34.26-.76.26-1.25l.2,3.39c-.31.81-.77,1.44-1.4,1.88-.63.44-1.38.67-2.25.67-1.05,0-1.95-.25-2.7-.76ZM932.82,614.38h3.92v20.82h-3.92v-20.82Z"/>
    <path class="cls-2" d="M944.53,629.37c0,.72.2,1.27.61,1.67.41.4.98.59,1.71.59s1.3-.2,1.7-.61c.4-.41.59-.99.59-1.74l.2,3.25c-.28.81-.74,1.49-1.38,2.05-.64.55-1.43.83-2.35.83-1.59,0-2.83-.51-3.69-1.54-.87-1.03-1.3-2.48-1.3-4.36v-9.18h3.92v9.03ZM949.14,620.34h3.91v14.86h-3.91v-14.86Z"/>
    <path class="cls-2" d="M956.27,631.27h3.92v3.92h-3.92v-3.92Z"/>
    <path class="cls-2" d="M970.3,620.34h3.91l-5.58,14.86h-2.78l-5.58-14.86h3.91l3.06,9.32,3.06-9.32Z"/>
    <path class="cls-2" d="M976.5,620.34h3.92v14.86h-3.92v-14.86ZM985.09,626.19c0-.73-.21-1.29-.62-1.69-.42-.4-1-.6-1.77-.6s-1.29.2-1.68.61c-.4.41-.59.98-.59,1.71l-.3-3.29c.45-.94.99-1.64,1.61-2.1.62-.47,1.41-.7,2.35-.7,1.57,0,2.78.53,3.64,1.58s1.29,2.55,1.29,4.47v9.02h-3.92v-9Z"/>
  </g>
</svg>